<?xml version="1.0" encoding="UTF-8"?>
<svg id="Layer_1" xmlns="http://www.w3.org/2000/svg" version="1.1" viewBox="0 0 32 32">
  <!-- Generator: Adobe Illustrator 29.3.1, SVG Export Plug-In . SVG Version: 2.1.0 Build 151)  -->
  <defs>
    <style>
      .st0 {
        fill-rule: evenodd;
      }

      .st0, .st1 {
        fill: #146936;
      }

      .st2 {
        fill: #54b848;
      }
    </style>
  </defs>
  <g>
    <path class="st1" d="M25.01,22.15c-.36.11-.44.09-1.21-.26.01.07.02.13.02.14-.11-.11-.23-.27-.39-.39-.42-.3-.43-.29-.45-.28-.24-.22-.47-.46-.73-.65-.11-.08-.3-.09-.44-.06-.34.06-.6-.02-.82-.29-.09-.1-.25-.14-.4-.16.09.24.19.48.3.75.08,0,.19-.02.31-.04-.28.21-.42.16-.48-.18-.07-.33-.4-.67-.67-.7.15.34.29.69.46,1.03.04.08.15.14.24.17.13.04.28.03.41.08.28.1.54.19.84.05.08-.04.21,0,.32.03-.18.03-.36.05-.53.08,0,.02,0,.04,0,.06.17.1.34.19.51.29.11.06.23.12.3.22.1.14.21.18.37.14-.07.01-.14.03-.24.05.26.38.7.3,1.04.46-.11-.01-.22-.03-.35-.04.09.18.16.33.24.49-.02,0-.03.02-.05.02-.04-.08-.08-.16-.12-.24-.09-.17-.21-.3-.41-.34-.21-.05-.36-.17-.48-.36-.08-.12-.22-.21-.35-.33-.04.15-.06.25-.09.34.12-.43-.23-.48-.49-.59-.28-.11-.58-.18-.88-.24.1.26.27.43.5.54.37.18.75.35.97.72.02.03.06.05.09.06.33.01.44.29.61.51.02.03,0,.1.02.17-.16-.26-.26-.54-.61-.58.36.52.36,1.09.19,1.67.22.03.39.06.57.08,0,.02,0,.03,0,.05h-.57c-.08.18-.17.38-.26.58-.02,0-.04-.01-.06-.02.06-.13.13-.25.17-.38.04-.15.06-.31.08-.44-.19.05-.38.09-.56.14,0,0-.01-.02-.02-.03.04-.03.1-.09.13-.08.28.09.37-.13.46-.3.14-.28.03-.68-.2-.92-.05-.05-.03-.16-.07-.23-.14-.27-.34-.5-.62-.63-.17-.08-.33-.15-.5-.23-.01.25.05.35.23.37-.07.09-.16.19-.26.31,0-.05.02-.1.03-.16,0-.06.03-.16,0-.18-.21-.16-.13-.45-.32-.63-.19-.18-.33-.41-.46-.64-.16-.28-.28-.58-.43-.86-.1-.17-.1-.16-.22,0-.05.06-.14.08-.26.14.08.05.12.07.16.09,0,.01-.02.02-.03.04-.05-.04-.1-.08-.16-.11.11-.16.2-.3.3-.44-.29-.58-.77-.55-1.29-.39.08.22.29.19.46.25-.09.01-.19.02-.29.03-.04.26.18.17.28.26-.11,0-.25.02-.33-.04-.09-.07-.11-.21-.17-.33-.1.06-.18.1-.31.19.1-.11.15-.17.24-.27-.24-.09-.47-.17-.68-.27-.22-.1-.42-.23-.67-.33.1.16.18.33.29.48.43.54.99.85,1.68.93.28.03.31.09.3.44-.05-.12-.07-.28-.16-.33-.09-.06-.24,0-.36-.01-.06,0-.12-.04-.2-.07.04.27.13.46.37.56.18.08.34.16.52.24.05.02.12.05.17.04.22-.07.36.05.51.18-.16-.05-.31-.1-.47-.15-.01.03-.03.06-.04.08.22.36.56.57.93.76-.06-.02-.12-.03-.21-.06.25.54.62.93,1.11,1.22-.46-.16-.77-.49-1.06-.87-.15-.2-.35-.37-.52-.55-.12-.12-.23-.24-.36-.35-.12-.09-.25-.17-.38-.24-.2-.1-.41-.19-.63-.29-.04.08-.09.18-.14.28.11-.38.16-.74-.37-.88-.03.38.08.72.24,1.04.11.22.25.41.38.62.14.23.33.35.62.2,0-.12-.02-.25-.03-.39.01,0,.03,0,.04-.01.03.13.06.25.1.41.29-.13.57-.16.72.25-.06-.04-.1-.08-.16-.12-.01.05-.02.09-.04.14,0,0-.01,0-.02,0,0-.01,0-.03,0-.05-.02-.07-.02-.18-.07-.21-.05-.03-.15,0-.22.03-.17.04-.33.1-.52.15.06.04.1.08.15.1.31.13.54.33.72.62.04.07.18.1.27.13.08.02.17,0,.25.05-.12.02-.24.03-.36.05,0,0,0,.03,0,.03.27.15.44.36.51.67.01.06.07.14.13.17.21.12.33.29.28.56.02-.32-.24-.4-.44-.56-.04.32-.1.63-.12.93,0,.07.09.17.17.2.32.12.46.38.55.67,0,.02,0,.04,0,.07-.06-.07-.12-.14-.19-.23.07-.15-.06-.31-.46-.46-.03.13-.05.27-.08.4-.04,0-.1.01-.18.03.26-.21.19-.44.08-.69-.07.04-.15.08-.22.13.33-.22.31-.57.31-.92,0-.12,0-.25-.02-.37-.02-.18-.1-.3-.27-.39-.12-.06-.21-.19-.31-.3-.08-.1-.15-.21-.26-.38-.25.56-.23,1.11-.37,1.63.07-.56-.01-1.14.26-1.68-.27-.16-.56-.33-.89-.53.03.12.05.23.08.33.03.1.07.19.07.3-.07-.14-.05-.35-.3-.29.02-.11.03-.24.07-.35.06-.16-.07-.22-.13-.32-.2-.34-.39-.68-.58-1.01-.14.17-.13.51.04.72.03.04,0,.13.02.2.01.09.03.17.02.26-.08-.2-.18-.4-.23-.61-.06-.24-.07-.49.07-.72.13-.23.04-.65-.17-.81-.09-.07-.18-.14-.32-.25,0,.12-.01.19-.02.28-.03,0-.12.03-.21.05.11.15.19.26.27.38,0,.01-.03.05-.03.05-.07-.08-.12-.19-.21-.24-.14-.08-.15-.14-.05-.26.2-.24.2-.29.02-.54-.09-.12-.17-.25-.22-.33-.08.48-.17,1-.24,1.52-.04.31.11.46.44.46.04,0,.08.02.18.06-.11.01-.17.02-.22.02.13.19.26.38.39.56-.01,0-.03.02-.04.03-.08-.11-.16-.22-.25-.34-.04.07-.07.12-.1.16.07-.23-.06-.32-.29-.4.13.48.29.91.59,1.28.3.37.63.66,1.16.68-.05.05-.07.08-.08.08-.18-.05-.35-.1-.54-.16.13.22.26.42.38.62-.01,0-.02.02-.04.02-.04-.05-.09-.1-.14-.16-.03.04-.06.07-.09.11,0-.02-.02-.03-.02-.04.08-.11.04-.21-.04-.3-.16-.18-.32-.36-.48-.54-.2-.22-.4-.44-.59-.66-.12.32-.05.52.25.69.19.11.14.25.07.37-.03-.09-.03-.25-.1-.28-.09-.05-.23-.18-.34-.05-.06-.56.11-1.17-.3-1.69-.2.55-.3,1.11-.27,1.7,0,.07.06.13.09.19.21.43.4.87.65,1.27.15.25.28.57.65.63.07.01.14.06.19.11.16.18.37.24.6.23v.06c-.15-.01-.3,0-.43-.04-.14-.05-.26-.17-.41-.23.12.25.3.44.54.56.26.11.47.27.61.51.03.05.09.07.1.08.01.11.02.21.03.31-.12-.14-.26-.27-.32-.43-.1-.28-.35-.26-.53-.38-.02.01-.04.02-.06.04.02.19.05.37.07.56-.02,0-.04,0-.06,0-.02-.18-.03-.36-.06-.54,0-.05-.02-.1-.05-.14-.26-.28-.52-.56-.78-.83-.01-.01-.04-.02-.06-.03-.13.37-.09.59.17.79-.14.06-.13.32.03.64-.05-.02-.1-.05-.16-.08-.04-.23-.09-.5-.13-.78-.04,0-.07,0-.11,0-.09.44-.18.87-.26,1.31,0,.05.05.13.1.17.22.14.44.27.66.44-.09-.03-.17-.07-.33-.13.12.3.23.55.35.85-.1-.15-.22-.26-.27-.39-.14-.42-.22-.54-.5-.66.07.72.24,1.43.01,2.14.24-.97-.27-1.9-.14-2.89-.14.12-.27.21-.37.33-.05.06-.05.17-.03.26.03.2.09.4.14.6,0,.03-.01.06-.03.11-.08-.26-.17-.49-.21-.74-.02-.1.02-.27.09-.33.59-.45.68-1.11.74-1.76.02-.25-.14-.51-.22-.78-.12.04-.21.05-.27.09-.05.04-.13.12-.12.16.09.32-.08.62-.1.94,0-.33,0-.67,0-1,0-.07.08-.14.14-.19.06-.05.14-.06.24-.11-.13-.21-.25-.39-.4-.62-.19.29-.37.55-.53.81-.03.05,0,.14.02.21.07.2.18.39.22.6.02.12,0,.29-.09.37-.17.17-.24.34-.22.57,0,.18,0,.36-.04.54,0-.28-.01-.56,0-.83,0-.1.09-.2.16-.27.13-.13.15-.26.08-.42-.07-.17-.15-.33-.29-.51-.13.41-.26.82-.38,1.24-.01,0-.03,0-.04-.01.05-.25.09-.49.16-.73.07-.25.16-.5.26-.74.1-.24.24-.47.36-.7-.01-.02-.03-.03-.04-.05-.15.13-.3.26-.43.37,0-.01-.05-.07-.07-.1.06-.04.13-.09.19-.13.1-.07.2-.17.31-.2.23-.06.28-.19.27-.4-.04-.65.09-1.27.28-1.88.1-.32.17-.64.25-.99q-.39.06-.4.49c-.04-.09-.09-.17-.13-.26-.02,0-.05-.02-.07-.03.13-.1.26-.2.39-.29.13-.09.22-.19.2-.36-.02-.12-.03-.25-.04-.42-.09.16-.15.29-.24.39-.17.2-.34.42-.56.56-.29.19-.28.45-.24.71.03.16.07.34.24.47.11.09.12.31.14.49-.07-.15-.14-.29-.21-.44-.03,0-.05.01-.08.02.03.23,0,.5.1.69.14.26.07.41-.11.58-.04.04-.07.09-.1.14-.02-.01-.03-.03-.05-.04.01-.02.03-.05.04-.07.17-.19.3-.37.09-.63-.06-.07-.07-.19-.12-.33-.05.14-.08.24-.13.38-.03-.34.29-.59.07-.92-.05.11-.09.22-.14.32-.06.12-.12.26-.2.36-.14.18-.14.38-.08.58.04.14.07.22.05.28,0,0-.02-.02-.02-.02-.06-.15-.13-.29-.22-.49-.1.15-.2.28-.27.43-.1.22-.15.46-.37.61-.04.03-.07.13-.05.17.11.21.23.4.35.61,0,.01-.05.06-.06.07-.09-.15-.19-.33-.3-.52-.13.1-.24.19-.35.27.15-.16.32-.3.27-.56,0-.04.08-.1.11-.15.09-.14.18-.28.24-.44-.45.13-.8.36-1,.78-.05.1-.15.18-.25.23-.24.14-.43.59-.28.81.08.13.26.19.37.28-.21.11.04.27-.01.4-.18-.13-.05-.46-.36-.54.03.49.08.94.46,1.28-.02.01-.04.03-.06.04-.13-.17-.26-.34-.41-.53-.19.03-.22.18-.21.36,0-.07-.02-.14-.04-.29-.16.17-.29.3-.41.43.01-.06.03-.15.06-.26.13-.07.31-.16.48-.27.05-.04.1-.13.1-.2-.03-.34-.08-.68-.13-1.02-.1.06-.21.12-.26.16.11-.17.24-.37.38-.56.06-.08.17-.14.24-.21.1-.09.19-.19.29-.29-.02-.02-.03-.04-.05-.06-.1.05-.19.11-.29.16,0,0-.01-.02-.02-.02.36-.27.73-.54,1.13-.84-.14-.03-.27-.05-.4-.08,0-.02,0-.04,0-.06.13.02.26.05.39.07.06,0,.16.01.19-.02.58-.53.92-1.18.97-1.99-.37.03-.43.32-.54.57-.08.17-.14.35-.22.53-.07.15-.29.25-.41.19.26-.07.39-.25.43-.56-.46.09-.83.34-1.11.7-.12.15-.15.38-.23.56-.07.14-.16.28-.28.46.01-.36.38-.56.3-.93-.29.38-.59.75-.86,1.11,0-.01,0-.03-.01-.06-.27.19-.52.43-.88.23.41.1.67-.13.97-.45-.16.03-.26.05-.36.07-.01-.02-.03-.04-.04-.06.58.06.68-.41.89-.72-.06-.07-.11-.14-.17-.21-.09.07-.18.14-.27.2,0-.01-.02-.02-.02-.03.1-.08.19-.16.31-.26.17.28.34.17.51,0,.18-.18.37-.36.56-.54-.02-.03-.04-.05-.05-.08-.19.08-.37.16-.54.23.13-.25.4-.3.68-.3.39,0,.66-.19.74-.61-.19.03-.37.05-.56.07,0-.02-.01-.04-.02-.06.13-.03.26-.05.38-.09.25-.09.52-.16.75-.29.45-.25.8-.61,1.03-1.16-.13.08-.21.13-.29.18-.33.21-.68.35-1.08.39-.18.02-.33.2-.5.3-.09.05-.19.09-.29.14.17-.15.33-.29.49-.44-.34-.18-.75-.1-.98.19-.23.27-.25.35-.34.94-.03-.1-.06-.18-.08-.25-.02,0-.03,0-.05,0-.03.08-.07.15-.1.23-.19.49-.46.93-.86,1.28-.16.14-.22.34-.18.56-.02-.04-.04-.08-.06-.12-.11.08-.21.16-.31.23-.01-.02-.03-.03-.04-.05.06-.04.12-.07.18-.11,0-.02-.02-.03-.02-.05-.07-.01-.15-.03-.22-.04.19,0,.37,0,.39-.26-.6.15-.95.55-1.17,1.09-.08.2-.12.42-.14.63,0,.09.09.2.13.3.04.08.07.15.08.24-.04-.06-.08-.11-.12-.17-.02,0-.05.01-.07.02.08.32.16.64.24,1-.1-.23-.19-.42-.28-.61-.18.13-.37.26-.55.38,0-.1,0-.2.19-.24.24-.05.37-.26.31-.49-.14-.52-.05-1,.26-1.46-.3-.02-.37.22-.53.35.1-.2.2-.4.47-.44.05,0,.12-.04.14-.08.2-.32.51-.5.84-.65.27-.12.49-.29.66-.6-.19.03-.34.05-.49.08-.03,0-.06.05-.06.08-.02.31-.26.3-.52.36.17-.13.44-.08.43-.4-.52.25-1.08.37-1.38.91-.02.04-.09.07-.15.09-.35.08-.6.25-.64.64,0,.03-.06.05-.12.06.08-.18.16-.36.26-.56-.13.01-.24.02-.35.03,0,0,0-.01,0-.02.25-.06.49-.12.73-.19.1-.03.23-.09.26-.18.15-.32.44-.46.72-.62.09-.05.18-.1.28-.15-.21-.16-.42-.14-.64-.05.21-.15.36-.16.61-.08.1.03.22.03.33,0,.19-.04.37-.15.55-.14.39.02.46-.25.58-.59-.19.08-.33.14-.46.2-.05-.17.17-.2.27-.21.16-.02.22-.1.28-.22.07-.14.15-.27.25-.43-.31.08-.6.14-.87.25-.1.04-.21.19-.22.29-.02.21-.13.27-.33.3.1-.07.19-.13.27-.19-.02-.01-.04-.02-.06-.03-.23,0-.47,0-.7,0-.2,0-.35.05-.49.19-.13.14-.29.25-.43.38-.09.09-.17.2-.24.3,0,0-.01-.04-.03-.09-.26.2-.62.31-.71.68,0-.07.02-.13.03-.2-.9.42-.76.35-1.12.29.2-.05.48-.08.73-.18.25-.11.47-.29.71-.44-.27-.2-.51,0-.76,0,.26-.13.51-.24.8-.12.03.01.09,0,.12-.02.3-.25.61-.51.93-.79-.39-.23-.73-.45-1.17-.39-.33.04-.43.13-.56.45.01-.05.02-.11.04-.16.03-.07.07-.13.13-.24-.35.04-.65.07-.96.1.15-.04.26-.15.45-.12.23.03.47-.02.69-.08.47-.13.88.02,1.28.23.11.06.26.05.39.07.06,0,.14-.02.2,0,.38.09.66-.02.85-.4-.32-.16-.62.06-.96.07.09-.04.15-.07.23-.11-.08-.09-.15-.16-.21-.24,0,0,0,0,.01-.01.1.07.19.16.31.21.14.06.23-.03.29-.15.34.18.68.18,1.05.04.35-.13.69-.26.95-.57-.29-.04-.57-.13-.85.1-.14.11-.37.13-.56.18,0-.02-.01-.04-.02-.06.18-.07.35-.14.53-.2,0-.02-.01-.04-.02-.07-.14.01-.28.04-.42.03-.41-.04-.81-.09-1.22-.14-.22-.03-.44-.09-.58.19-.05.1-.17.17-.26.25,0-.04,0-.09-.01-.15-.18-.01-.36-.03-.54-.04.25-.12.56.06.76-.22-.47.02-.95-.03-1.36.28-.24.18-.52.24-.83.16-.12-.03-.26,0-.39.01-.05,0-.11-.01-.16-.02-.14-.02-.29-.05-.46-.08.05,0,.08-.02.11-.02.36.02.72.07,1.08.06.21,0,.42,0,.59-.25.09-.14.38-.17.59-.22.25-.06.5-.08.77-.12-.24-.31-.48-.12-.71-.02.1-.08.21-.17.37-.29-.36-.04-.67-.07-.99-.1,0-.01,0-.03,0-.04.1,0,.21.01.31.02.11,0,.22,0,.33.01.14.02.3.02.41.09.31.18.62.27.98.33.66.11,1.3.05,1.95.01.36-.02.73.06,1.08.15.42.11.82.16,1.22-.05.04-.02.08-.05.12-.1-.41.1-.77,0-1.11-.21-.07-.04-.18-.02-.34-.04.16-.03.26-.05.35-.07-.12-.17-.35-.26-.58-.21-.09.02-.17.04-.25.08-.27.12-.53.22-.82.02-.02-.02-.05-.03-.08-.04.1.02.2.05.3.07.07.01.16.02.23,0,.14-.05.28-.12.42-.24-.17-.03-.35-.06-.52-.1,0-.01,0-.03,0-.05.2.03.41.06.61.09.07,0,.14.03.21.03.3,0,.53.11.74.33.08.08.22.16.33.16.22,0,.44-.02.65-.08.09-.03.17-.16.2-.27,0-.04.01-.08.02-.11,0-.04,0-.08,0-.13.04-.06.08-.12.12-.19h1.54c.05.08.11.15.18.22v.2c0,.16.08.26.24.29.17.03.35.06.52.07.17.02.32-.02.45-.17.18-.23.75-.35,1.02-.24.06.02.12.05.18.08.2.11.41.22.63.03.03-.03.1-.01.14-.02-.28.28-.58.2-.9.05-.2-.09-.39-.14-.59.04-.08.07-.21.08-.31.12,0,.02,0,.04-.01.06.13.07.27.14.39.21,0,0,0,0,0,0-.32-.15-.63,0-.94.05-.14.03-.29-.01-.43-.02,0,.02-.01.04-.02.06.19.06.37.16.57.18.2.02.42.01.61-.05.56-.2,1.13-.23,1.71-.16.13.01.27-.02.4-.04.18-.02.36-.04.54-.02-.12.02-.25.05-.37.07,0,.01,0,.03,0,.04.16-.01.32-.03.47-.04.21-.02.42-.08.63-.07.31.03.56-.07.8-.24.16-.11.32-.17.51-.12.09.02.2,0,.3-.01.13,0,.26,0,.44,0-.49.16-1.03-.07-1.41.4.13.02.26.04.38.07.22.06.43.13.65.18.08.02.17.01.26.02-.01.02-.04.05-.09.1.2.15.41.23.67.19.17-.03.35-.11.51.03-.18.02-.36.06-.53.04-.21-.02-.46-.03-.62-.15-.44-.32-.93-.31-1.47-.35.18.33.51.09.72.27h-.46c0,.09-.02.16-.02.19-.05-.06-.12-.14-.2-.22-.01-.02-.04-.02-.05-.04-.16-.34-.46-.25-.7-.18-.51.15-1.03.14-1.55.08-.06,0-.13,0-.19,0,0,.02,0,.04,0,.06.23.05.47.09.76.15-.27.04-.49-.03-.73.05-.25-.28-.36-.32-.73-.19.92.76,1.64.74,1.99.49.13.25.23.24.63-.05-.07.08-.14.16-.23.26.07.04.13.07.2.11-.32,0-.62-.23-.95-.07.18.34.44.5.82.4.02,0,.05,0,.07,0,.35.12.63-.09.92-.22.06-.03.11-.09.15-.14.16-.23.34-.26.59-.11-.2-.04-.39-.09-.49.11.56.06,1.11.13,1.67.19,0,.02,0,.04,0,.06-.26-.02-.52-.04-.8-.06.04.09.06.15.09.21-.12-.21-.3-.28-.53-.27-.21,0-.41.04-.62.06,0,.03,0,.05,0,.08.13.03.26.07.41.11-.31.04-.63-.16-.88.12.15.26.18.26.47.2.18-.04.37-.03.54-.04.04.07.07.13.1.2-.24-.17-.49-.15-.81-.03.23.18.42.34.61.49.02.01.06.02.08,0,.35-.17.65.06.96.15-.3.01-.58-.28-.9-.06.47.33.89.7,1.52.59Z"/>
    <g>
      <path class="st0" d="M16.02,20.75c-1.49-3.66.28-5.75,3.41-6.83.94-.32,1.77-.33,2.34-.75.91-.66,2.13-2.19,2.84-2.41,1.02-.31.68.56.68.56,0,0-1.27,1.95-1.44,2.15-.17.2-.95.86-1.18.93.24.01.82-.38,1.35-.84.16-.14.27-.37.42-.58.62-.94,1.16-1.46,1.21-1.95.05-.49-.45-.51-.45-.51,0,0,.34-.84.3-2.4-.02-.98.62-1.39.91-1.22.13.08.09.81.09,1.07.03,1.11.27,2.95-.03,3.7-.37.96-1.14,3.24-2.37,4.22-3.39,2.73-5.95.81-8.09,4.87h0Z"/>
      <path class="st0" d="M15.98,20.75c1.49-3.66-.28-5.75-3.41-6.83-.94-.32-1.77-.33-2.34-.75-.91-.66-2.12-2.19-2.83-2.41-1.02-.31-.68.56-.68.56,0,0,1.27,1.95,1.44,2.15.17.2.95.86,1.18.93-.24.01-.82-.38-1.35-.84-.16-.14-.27-.37-.42-.58-.63-.94-1.16-1.46-1.21-1.95-.05-.49.45-.51.45-.51,0,0-.34-.84-.3-2.4.02-.98-.62-1.39-.92-1.22-.13.08-.09.81-.09,1.07-.03,1.11-.26,2.95.03,3.7.37.96,1.14,3.24,2.36,4.22,3.39,2.73,5.95.81,8.09,4.87h0Z"/>
    </g>
  </g>
  <g>
    <g>
      <path class="st2" d="M20.2,10.14s.19-.42.69-.45c.44-.03.8.31,1.27.15,0,0-.98,1.2-1.89.39,0,0,.54-.31,1.04-.19,0,0-.53-.23-1.12.09Z"/>
      <path class="st2" d="M19.17,10.64s.43-.16.81.17c.33.29.34.79.79,1.01,0,0-1.54.14-1.61-1.07,0,0,.6.16.87.61,0,0-.21-.54-.85-.73Z"/>
      <path class="st2" d="M19.6,8.87s.2.37.66.35c.4-.01.69-.34,1.14-.24,0,0-.98-1-1.74-.2,0,0,.51.24.96.08,0,0-.46.25-1.02,0Z"/>
      <path class="st2" d="M18.67,9.24s-.01.3.27.46c.25.14.55.05.78.27,0,0-.23-.98-.99-.77,0,0,.22.33.55.41,0,0-.37-.02-.62-.38Z"/>
      <path class="st2" d="M17.62,10.54s-.01.3.27.46c.25.14.55.05.78.27,0,0-.23-.98-.99-.77,0,0,.22.33.55.41,0,0-.37-.02-.62-.38Z"/>
      <path class="st2" d="M18.69,8.84s-.16-.39.13-.74c.25-.31.7-.33.89-.74,0,0,.18,1.39-.91,1.49,0,0,.13-.55.52-.8,0,0-.48.21-.63.8Z"/>
      <path class="st2" d="M17.54,9.35s-.21-.22-.11-.54c.09-.27.38-.41.4-.74,0,0,.5.89-.21,1.25,0,0-.06-.4.14-.69,0,0-.27.27-.21.71Z"/>
      <path class="st2" d="M16.32,8.89s-.06-.3.2-.51c.22-.18.55-.14.74-.4,0,0-.07,1.02-.86.93,0,0,.17-.37.49-.5,0,0-.37.08-.57.48Z"/>
      <path class="st2" d="M20.11,7.95s-.05-.3.22-.5c.23-.17.55-.12.76-.37,0,0-.11,1.01-.9.9,0,0,.18-.36.51-.48,0,0-.38.07-.58.46Z"/>
      <path class="st2" d="M13.11,10.6s-.23-.19-.54-.06c-.27.11-.38.42-.71.46,0,0,.93.42,1.23-.32,0,0-.41-.03-.67.2,0,0,.25-.29.69-.27Z"/>
      <path class="st2" d="M16.39,4.67s-.44-.15-.52-.65c-.07-.43.24-.83.04-1.29,0,0,1.29.87.57,1.85,0,0-.36-.51-.28-1.03,0,0-.18.55.2,1.11Z"/>
      <path class="st2" d="M16.97,5.83s-.28-.37-.06-.83c.19-.4.66-.55.76-1.04,0,0,.57,1.45-.58,1.85,0,0,0-.62.35-1.01,0,0-.46.35-.47,1.03Z"/>
      <path class="st2" d="M16.35,6.35s.24-.39-.02-.83c-.23-.38-.71-.49-.85-.97,0,0-.44,1.49.74,1.79,0,0-.05-.62-.44-.97,0,0,.49.31.56.98Z"/>
      <path class="st2" d="M14.74,6.27s-.2-.42-.71-.44c-.44-.01-.79.34-1.27.19,0,0,1.02,1.17,1.91.34,0,0-.55-.3-1.05-.16,0,0,.53-.24,1.13.06Z"/>
      <path class="st2" d="M15.26,7.3s-.16-.34-.58-.36c-.36-.01-.65.28-1.04.16,0,0,.84.96,1.57.28,0,0-.45-.24-.86-.13,0,0,.43-.2.92.05Z"/>
      <path class="st2" d="M16.67,7.63s-.03-.38.32-.61c.3-.19.7-.1.98-.4,0,0-.23,1.25-1.2,1.04,0,0,.26-.44.68-.55,0,0-.47.05-.77.52Z"/>
      <path class="st2" d="M12.81,8.82s-.38-.04-.53-.43c-.13-.34.04-.7-.2-1.04,0,0,1.19.46.79,1.38,0,0-.38-.34-.41-.77,0,0-.04.47.36.85Z"/>
      <path class="st2" d="M13.88,9.28s-.32-.03-.45-.36c-.11-.28.03-.6-.17-.88,0,0,1,.39.67,1.17,0,0-.32-.29-.35-.65,0,0-.04.4.3.72Z"/>
      <path class="st2" d="M11.97,10.11s-.23-.3-.65-.22c-.35.07-.58.41-.99.38,0,0,1.02.76,1.59-.06,0,0-.49-.14-.87.06,0,0,.38-.29.91-.15Z"/>
      <path class="st2" d="M14.23,5.53s-.51.09-.85-.37c-.29-.39-.2-.94-.64-1.28,0,0,1.72.18,1.53,1.52,0,0-.62-.31-.82-.86,0,0,.11.64.78.99Z"/>
      <path class="st2" d="M11.69,8.87s-.33.26-.75.06c-.36-.17-.5-.59-.94-.67,0,0,1.3-.53,1.67.5,0,0-.56.02-.91-.3,0,0,.32.41.93.41Z"/>
      <path class="st2" d="M11.84,9.69s.1-.16,0-.33c-.09-.15-.28-.2-.33-.39,0,0-.18.59.29.72,0,0-.01-.25-.17-.39,0,0,.19.13.22.39Z"/>
      <path class="st2" d="M12.49,10.04s-.22-.07-.26-.33c-.03-.22.12-.41.02-.64,0,0,.64.44.28.93,0,0-.18-.25-.14-.51,0,0-.09.28.1.56Z"/>
    </g>
    <path class="st1" d="M18.27,10.13c-.46-.08-.84.05-1.05.16.47-.67,1.18-1.22,2.27-1.44,0,0-3.23.16-3.5,4.1-.08-.34-.22-1.55-.18-2.25.06-1.04.47-1.97.67-2.97.21-.99.32-2.01.02-3,.18,1.08-.03,1.97-.12,2.36-.11.47-.32.91-.5,1.36-.02-.81-.26-2.16-1.55-2.9,0,0,.94.6,1.22,2.11.12.67.07,1.37-.14,2.02-.07.23-.13.47-.17.7-.02.15-.04.31-.05.47-.52-.82-1.57-1.96-3.4-2.01,0,0,1.38.15,2.49,1.32,0,0-1.19.56-2.45-.45,0,0,.88,1.17,2.66.69.43.55.67,1.21.71,1.91,0,0,0,0,0,0,.03.55.08,1.1.18,1.63l.65-.03h0s.35-.02.35-.02c0,0-.18-1.7.55-3.14.1-.19.27-.35.47-.42.39-.14.84-.12,1.37.02.76.2,1.37-.12,1.37-.12-.88.25-1.36-.03-1.88-.12Z"/>
  </g>
</svg>