<?xml version="1.0" encoding="UTF-8"?>
<svg id="Layer_1" xmlns="http://www.w3.org/2000/svg" version="1.1" viewBox="0 0 32 32">
  <!-- Generator: Adobe Illustrator 29.3.1, SVG Export Plug-In . SVG Version: 2.1.0 Build 151)  -->
  <defs>
    <style>
      .st0 {
        fill-rule: evenodd;
      }

      .st0, .st1 {
        fill: #146936;
      }

      .st2 {
        fill: #fff;
      }

      .st3 {
        fill: #54b848;
      }
    </style>
  </defs>
  <rect class="st2" x="0" y="0" width="32" height="32"/>
  <g>
    <path class="st1" d="M25,22.1c-.4.1-.4,0-1.2-.3,0,0,0,.1,0,.1-.1-.1-.2-.3-.4-.4-.4-.3-.4-.3-.5-.3-.2-.2-.5-.5-.7-.6-.1,0-.3,0-.4,0-.3,0-.6,0-.8-.3,0-.1-.2-.1-.4-.2,0,.2.2.5.3.8,0,0,.2,0,.3,0-.3.2-.4.2-.5-.2,0-.3-.4-.7-.7-.7.1.3.3.7.5,1,0,0,.1.1.2.2.1,0,.3,0,.4,0,.3.1.5.2.8,0,0,0,.2,0,.3,0-.2,0-.4,0-.5,0h0c.2.2.3.2.5.4.1,0,.2.1.3.2.1.1.2.2.4.1,0,0-.1,0-.2,0,.3.4.7.3,1,.5-.1,0-.2,0-.4,0,0,.2.2.3.2.5,0,0,0,0,0,0,0,0,0-.2-.1-.2,0-.2-.2-.3-.4-.3-.2,0-.4-.2-.5-.4,0-.1-.2-.2-.4-.3,0,.1,0,.2,0,.3.1-.4-.2-.5-.5-.6-.3-.1-.6-.2-.9-.2.1.3.3.4.5.5.4.2.8.4,1,.7,0,0,0,0,0,0,.3,0,.4.3.6.5,0,0,0,.1,0,.2-.2-.3-.3-.5-.6-.6.4.5.4,1.1.2,1.7.2,0,.4,0,.6,0h0s-.6,0-.6,0c0,.2-.2.4-.3.6,0,0,0,0,0,0,0-.1.1-.2.2-.4,0-.1,0-.3,0-.4-.2,0-.4,0-.6.1,0,0,0,0,0,0,0,0,.1,0,.1,0,.3,0,.4-.1.5-.3.1-.3,0-.7-.2-.9,0,0,0-.2,0-.2-.1-.3-.3-.5-.6-.6-.2,0-.3-.1-.5-.2,0,.2,0,.4.2.4,0,0-.2.2-.3.3,0,0,0-.1,0-.2,0,0,0-.2,0-.2-.2-.2-.1-.5-.3-.6-.2-.2-.3-.4-.5-.6-.2-.3-.3-.6-.4-.9-.1-.2-.1-.2-.2,0,0,0-.1,0-.3.1,0,0,.1,0,.2,0,0,0,0,0,0,0,0,0-.1,0-.2-.1.1-.2.2-.3.3-.4-.3-.6-.8-.5-1.3-.4,0,.2.3.2.5.2,0,0-.2,0-.3,0,0,.3.2.2.3.3-.1,0-.2,0-.3,0,0,0-.1-.2-.2-.3-.1,0-.2.1-.3.2.1-.1.1-.2.2-.3-.2,0-.5-.2-.7-.3-.2-.1-.4-.2-.7-.3.1.2.2.3.3.5.4.5,1,.9,1.7.9.3,0,.3,0,.3.4,0-.1,0-.3-.2-.3,0,0-.2,0-.4,0,0,0-.1,0-.2,0,0,.3.1.5.4.6.2,0,.3.2.5.2,0,0,.1,0,.2,0,.2,0,.4,0,.5.2-.2,0-.3-.1-.5-.1,0,0,0,0,0,0,.2.4.6.6.9.8,0,0-.1,0-.2,0,.2.5.6.9,1.1,1.2-.5-.2-.8-.5-1.1-.9-.1-.2-.4-.4-.5-.5-.1-.1-.2-.2-.4-.4-.1,0-.2-.2-.4-.2-.2-.1-.4-.2-.6-.3,0,0,0,.2-.1.3.1-.4.2-.7-.4-.9,0,.4,0,.7.2,1,.1.2.2.4.4.6.1.2.3.4.6.2,0-.1,0-.2,0-.4,0,0,0,0,0,0,0,.1,0,.2.1.4.3-.1.6-.2.7.2,0,0-.1,0-.2-.1,0,0,0,0,0,.1h0c0-.1,0-.2,0-.3,0,0-.1,0-.2,0-.2,0-.3.1-.5.1,0,0,.1,0,.1.1.3.1.5.3.7.6,0,0,.2.1.3.1,0,0,.2,0,.2,0-.1,0-.2,0-.4,0h0c.3.2.4.4.5.7,0,0,0,.1.1.2.2.1.3.3.3.6,0-.3-.2-.4-.4-.6,0,.3-.1.6-.1.9,0,0,0,.2.2.2.3.1.5.4.5.7h0c0,0-.1,0-.2-.2,0-.1,0-.3-.5-.5,0,.1,0,.3,0,.4,0,0-.1,0-.2,0,.3-.2.2-.4,0-.7,0,0-.1,0-.2.1.3-.2.3-.6.3-.9s0-.2,0-.4c0-.2-.1-.3-.3-.4-.1,0-.2-.2-.3-.3,0-.1-.1-.2-.3-.4-.2.6-.2,1.1-.4,1.6,0-.6,0-1.1.3-1.7-.3-.2-.6-.3-.9-.5,0,.1,0,.2,0,.3s0,.2,0,.3c0-.1,0-.4-.3-.3,0-.1,0-.2,0-.4,0-.2,0-.2-.1-.3-.2-.3-.4-.7-.6-1-.1.2-.1.5,0,.7,0,0,0,.1,0,.2,0,0,0,.2,0,.3,0-.2-.2-.4-.2-.6,0-.2,0-.5,0-.7.1-.2,0-.6-.2-.8,0,0-.2-.1-.3-.2,0,.1,0,.2,0,.3,0,0-.1,0-.2,0,.1.1.2.3.3.4,0,0,0,0,0,0,0,0-.1-.2-.2-.2-.1,0-.1-.1,0-.3.2-.2.2-.3,0-.5,0-.1-.2-.2-.2-.3,0,.5-.2,1-.2,1.5,0,.3.1.5.4.5s0,0,.2,0c-.1,0-.2,0-.2,0,.1.2.3.4.4.6,0,0,0,0,0,0,0-.1-.2-.2-.2-.3,0,0,0,.1-.1.2,0-.2,0-.3-.3-.4.1.5.3.9.6,1.3s.6.7,1.2.7c0,0,0,0,0,0-.2,0-.4-.1-.5-.2.1.2.3.4.4.6,0,0,0,0,0,0,0,0,0-.1-.1-.2,0,0,0,0,0,.1,0,0,0,0,0,0,0-.1,0-.2,0-.3l-.5-.5c-.2-.2-.4-.4-.6-.7-.1.3,0,.5.2.7.2.1.1.2,0,.4,0,0,0-.2-.1-.3,0,0-.2-.2-.3,0,0-.6.1-1.2-.3-1.7-.2.5-.3,1.1-.3,1.7,0,0,0,.1,0,.2.2.4.4.9.6,1.3.1.2.3.6.6.6,0,0,.1,0,.2.1.2.2.4.2.6.2h0c-.1,0-.3,0-.4,0-.1,0-.3-.2-.4-.2.1.2.3.4.5.6.3.1.5.3.6.5,0,0,0,0,.1,0,0,.1,0,.2,0,.3-.1-.1-.3-.3-.3-.4-.1-.3-.4-.3-.5-.4,0,0,0,0,0,0,0,.2,0,.4,0,.6h0c0-.2,0-.4,0-.5,0,0,0-.1,0-.1-.3-.3-.5-.6-.8-.8,0,0,0,0,0,0-.1.4,0,.6.2.8-.1,0-.1.3,0,.6,0,0-.1,0-.2,0,0-.2,0-.5-.1-.8h-.1c0,.4-.2.9-.3,1.3,0,0,0,.1.1.2.2.1.4.3.7.4,0,0-.2,0-.3-.1.1.3.2.5.4.9-.1-.1-.2-.3-.3-.4-.1-.4-.2-.5-.5-.7,0,.7.2,1.4,0,2.1.2-1-.3-1.9-.1-2.9-.1.1-.3.2-.4.3,0,0,0,.2,0,.3,0,.2,0,.4.1.6,0,0,0,0,0,.1,0-.3-.2-.5-.2-.7,0-.1,0-.3,0-.3.6-.5.7-1.1.7-1.8,0-.2-.1-.5-.2-.8-.1,0-.2,0-.3,0,0,0-.1.1-.1.2,0,.3,0,.6-.1.9v-1c0,0,0-.1.1-.2,0,0,.1,0,.2-.1-.1-.2-.2-.4-.4-.6-.2.3-.4.5-.5.8,0,0,0,.1,0,.2,0,.2.2.4.2.6,0,.1,0,.3,0,.4-.2.2-.2.3-.2.6,0,.2,0,.4,0,.5,0-.3,0-.6,0-.8,0-.1,0-.2.2-.3.1-.1.1-.3,0-.4,0-.2-.1-.3-.3-.5-.1.4-.3.8-.4,1.2,0,0,0,0,0,0,0-.2,0-.5.2-.7,0-.2.2-.5.3-.7s.2-.5.4-.7c0,0,0,0,0,0-.1.1-.3.3-.4.4,0,0,0,0,0-.1,0,0,.1,0,.2-.1.1,0,.2-.2.3-.2.2,0,.3-.2.3-.4,0-.6,0-1.3.3-1.9.1-.3.2-.6.2-1-.3,0-.4.2-.4.5,0,0,0-.2-.1-.3,0,0,0,0,0,0,.1-.1.3-.2.4-.3.1,0,.2-.2.2-.4,0-.1,0-.2,0-.4,0,.2-.1.3-.2.4-.2.2-.3.4-.6.6-.3.2-.3.5-.2.7,0,.2,0,.3.2.5.1,0,.1.3.1.5,0-.1-.1-.3-.2-.4,0,0,0,0,0,0,0,.2,0,.5.1.7.1.3,0,.4-.1.6,0,0,0,0-.1.1,0,0,0,0,0,0,0,0,0,0,0,0,.2-.2.3-.4,0-.6,0,0,0-.2-.1-.3,0,.1,0,.2-.1.4,0-.3.3-.6,0-.9,0,.1,0,.2-.1.3s-.1.3-.2.4c-.1.2-.1.4,0,.6,0,.1,0,.2,0,.3h0c0-.2-.1-.3-.2-.5-.1.1-.2.3-.3.4-.1.2-.1.5-.4.6,0,0,0,.1,0,.2.1.2.2.4.4.6,0,0,0,0,0,0,0-.1-.2-.3-.3-.5-.1.1-.2.2-.4.3.1-.2.3-.3.3-.6,0,0,0-.1.1-.1,0-.1.2-.3.2-.4-.4.1-.8.4-1,.8,0,.1-.1.2-.2.2-.2.1-.4.6-.3.8,0,.1.3.2.4.3-.2.1,0,.3,0,.4-.2-.1,0-.5-.4-.5,0,.5,0,.9.5,1.3,0,0,0,0,0,0-.1-.2-.3-.3-.4-.5-.2,0-.2.2-.2.4,0,0,0-.1,0-.3-.2.2-.3.3-.4.4,0,0,0-.1,0-.3.1,0,.3-.2.5-.3,0,0,.1-.1.1-.2,0-.3,0-.7-.1-1-.1,0-.2.1-.3.2.1-.2.2-.4.4-.6,0,0,.2-.1.2-.2.1,0,.2-.2.3-.3,0,0,0,0,0,0-.1,0-.2.1-.3.2,0,0,0,0,0,0,.4-.3.7-.5,1.1-.8-.1,0-.3,0-.4,0h0c.1,0,.3,0,.4,0,0,0,.2,0,.2,0,.6-.5.9-1.2,1-2-.4,0-.4.3-.5.6,0,.2-.1.4-.2.5,0,.1-.3.2-.4.2.3,0,.4-.2.4-.6-.5,0-.8.3-1.1.7-.1.1-.1.4-.2.6,0,.1-.2.3-.3.5,0-.4.4-.6.3-.9-.3.4-.6.8-.9,1.1,0,0,0,0,0,0-.3.2-.5.4-.9.2.4.1.7-.1,1-.5-.2,0-.3,0-.4,0,0,0,0,0,0,0,.6,0,.7-.4.9-.7,0,0-.1-.1-.2-.2,0,0-.2.1-.3.2,0,0,0,0,0,0,.1,0,.2-.2.3-.3.2.3.3.2.5,0s.4-.4.6-.5c0,0,0,0,0,0-.2,0-.4.2-.5.2.1-.2.4-.3.7-.3s.7-.2.7-.6c-.2,0-.4,0-.6,0,0,0,0,0,0,0,.1,0,.3,0,.4,0,.2,0,.5-.2.8-.3.4-.2.8-.6,1-1.2-.1,0-.2.1-.3.2-.3.2-.7.4-1.1.4-.2,0-.3.2-.5.3,0,0-.2,0-.3.1.2-.1.3-.3.5-.4-.3-.2-.8-.1-1,.2-.2.3-.2.4-.3.9,0-.1,0-.2,0-.2h0c0,0,0,.1-.1.2-.2.5-.5.9-.9,1.3-.2.1-.2.3-.2.6h0c-.1,0-.2,0-.3.1,0,0,0,0,0,0,0,0,.1,0,.2-.1,0,0,0,0,0,0,0,0-.1,0-.2,0,.2,0,.4,0,.4-.3-.6.1-.9.5-1.2,1.1,0,.2-.1.4-.1.6,0,0,0,.2.1.3,0,0,0,.1,0,.2,0,0,0-.1-.1-.2,0,0,0,0,0,0,0,.3.2.6.2,1-.1-.2-.2-.4-.3-.6-.2.1-.4.3-.6.4,0-.1,0-.2.2-.2.2,0,.4-.3.3-.5-.1-.5,0-1,.3-1.5-.3,0-.4.2-.5.4.1-.2.2-.4.5-.4,0,0,.1,0,.1,0,.2-.3.5-.5.8-.6.3-.1.5-.3.7-.6-.2,0-.3,0-.5,0,0,0,0,0,0,0,0,.3-.3.3-.5.4.2-.1.4,0,.4-.4-.5.2-1.1.4-1.4.9,0,0,0,0-.1,0-.4,0-.6.2-.6.6,0,0,0,0-.1,0,0-.2.2-.4.3-.6-.1,0-.2,0-.4,0h0c.2,0,.5-.1.7-.2.1,0,.2,0,.3-.2.1-.3.4-.5.7-.6,0,0,.2-.1.3-.1-.2-.2-.4-.1-.6,0,.2-.1.4-.2.6,0,.1,0,.2,0,.3,0,.2,0,.4-.1.6-.1.4,0,.5-.2.6-.6-.2,0-.3.1-.5.2,0-.2.2-.2.3-.2.2,0,.2-.1.3-.2s.1-.3.2-.4c-.3,0-.6.1-.9.2-.1,0-.2.2-.2.3,0,.2-.1.3-.3.3.1,0,.2-.1.3-.2,0,0,0,0,0,0h-.7c-.2,0-.4,0-.5.2-.1.1-.3.2-.4.4,0,0-.2.2-.2.3,0,0,0,0,0,0-.3.2-.6.3-.7.7,0,0,0-.1,0-.2-.9.4-.8.4-1.1.3.2,0,.5,0,.7-.2.2-.1.5-.3.7-.4-.3-.2-.5,0-.8,0,.3-.1.5-.2.8-.1,0,0,0,0,.1,0,.3-.2.6-.5.9-.8-.4-.2-.7-.5-1.2-.4-.3,0-.4.1-.6.5,0,0,0-.1,0-.2,0,0,0-.1.1-.2-.4,0-.6,0-1,.1.2,0,.3-.1.4-.1.2,0,.5,0,.7,0,.5-.1.9,0,1.3.2.1,0,.3,0,.4,0,0,0,.1,0,.2,0,.4,0,.7,0,.9-.4-.3-.2-.6,0-1,0,0,0,.1,0,.2-.1,0,0-.1-.2-.2-.2h0c.1,0,.2.1.3.2.1,0,.2,0,.3-.1.3.2.7.2,1.1,0,.4-.1.7-.3.9-.6-.3,0-.6-.1-.9.1-.1.1-.4.1-.6.2,0,0,0,0,0,0,.2,0,.4-.1.5-.2,0,0,0,0,0,0-.1,0-.3,0-.4,0-.4,0-.8,0-1.2-.1-.2,0-.4,0-.6.2s-.2.2-.3.2c0,0,0,0,0-.1-.2,0-.4,0-.5,0,.2-.1.6,0,.8-.2-.5,0-.9,0-1.4.3-.2.2-.5.2-.8.2-.1,0-.3,0-.4,0,0,0-.1,0-.2,0-.1,0-.3,0-.5,0,0,0,0,0,.1,0,.4,0,.7,0,1.1,0,.2,0,.4,0,.6-.2,0-.1.4-.2.6-.2.2,0,.5,0,.8-.1-.2-.3-.5-.1-.7,0,.1,0,.2-.2.4-.3-.4,0-.7,0-1-.1h0c.1,0,.2,0,.3,0,.1,0,.2,0,.3,0,.1,0,.3,0,.4,0,.3.2.6.3,1,.3.7.1,1.3,0,1.9,0,.4,0,.7,0,1.1.1.4.1.8.2,1.2,0,0,0,0,0,.1-.1-.4.1-.8,0-1.1-.2,0,0-.2,0-.3,0,.2,0,.3,0,.4,0-.1-.2-.4-.3-.6-.2,0,0-.2,0-.2,0-.3.1-.5.2-.8,0,0,0,0,0,0,0,.1,0,.2,0,.3,0,0,0,.2,0,.2,0,.1,0,.3-.1.4-.2-.2,0-.4,0-.5-.1h0c.2,0,.4,0,.6,0,0,0,.1,0,.2,0,.3,0,.5.1.7.3,0,0,.2.2.3.2.2,0,.4,0,.6,0,0,0,.2-.2.2-.3,0,0,0,0,0-.1h0c0-.2,0-.2.1-.3h1.5c0,0,.1.1.2.2v.2c0,.2,0,.3.2.3.2,0,.4,0,.5,0,.2,0,.3,0,.5-.2.2-.2.8-.4,1-.2,0,0,.1,0,.2,0,.2.1.4.2.6,0,0,0,.1,0,.1,0-.3.3-.6.2-.9,0-.2,0-.4-.1-.6,0,0,0-.2,0-.3.1,0,0,0,0,0,0,.1,0,.3.1.4.2h0c-.3-.1-.6,0-.9,0-.1,0-.3,0-.4,0,0,0,0,0,0,0,.2,0,.4.2.6.2.2,0,.4,0,.6,0,.6-.2,1.1-.2,1.7-.2.1,0,.3,0,.4,0,.2,0,.4,0,.5,0-.1,0-.2,0-.4,0h0c.2,0,.3,0,.5,0,.2,0,.4,0,.6,0,.3,0,.6,0,.8-.2.2-.1.3-.2.5-.1,0,0,.2,0,.3,0h.4c-.5.2-1,0-1.4.4.1,0,.3,0,.4,0,.2,0,.4.1.6.2,0,0,.2,0,.3,0,0,0,0,0,0,.1.2.1.4.2.7.2.2,0,.4-.1.5,0-.2,0-.4,0-.5,0-.2,0-.5,0-.6-.1-.4-.3-.9-.3-1.5-.4.2.3.5,0,.7.3h-.5c0,0,0,.2,0,.2,0,0-.1-.1-.2-.2,0,0,0,0,0,0-.2-.3-.5-.2-.7-.2-.5.1-1,.1-1.5,0h-.2c.2.1.5.1.8.2-.3,0-.5,0-.7,0-.2-.3-.4-.3-.7-.2.9.8,1.6.7,2,.5.1.2.2.2.6,0,0,0-.1.2-.2.3,0,0,.1,0,.2.1-.3,0-.6-.2-1,0,.2.3.4.5.8.4h0c.4.1.6,0,.9-.2,0,0,.1,0,.1-.1.2-.2.3-.3.6-.1-.2,0-.4,0-.5.1.6,0,1.1.1,1.7.2h0c-.3,0-.5,0-.8,0,0,0,0,.1,0,.2-.1-.2-.3-.3-.5-.3-.2,0-.4,0-.6,0h0c.1.1.3.1.4.2-.3,0-.6-.2-.9.1.1.3.2.3.5.2.2,0,.4,0,.5,0,0,0,0,.1.1.2-.2-.2-.5-.1-.8,0,.2.2.4.3.6.5,0,0,0,0,0,0,.4-.2.6,0,1,.1-.3,0-.6-.3-.9,0,.5.3.9.7,1.5.6h0Z"/>
    <g>
      <path class="st0" d="M16,20.7c-1.5-3.7.3-5.8,3.4-6.8.9-.3,1.8-.3,2.3-.8.9-.7,2.1-2.2,2.8-2.4,1-.3.7.6.7.6,0,0-1.3,1.9-1.4,2.2-.2.2-1,.9-1.2.9.2,0,.8-.4,1.4-.8.2-.1.3-.4.4-.6.6-.9,1.2-1.5,1.2-1.9,0-.5-.5-.5-.5-.5,0,0,.3-.8.3-2.4,0-1,.6-1.4.9-1.2.1,0,0,.8,0,1.1,0,1.1.3,3,0,3.7-.4,1-1.1,3.2-2.4,4.2-3.4,2.7-6,.8-8.1,4.9h0Z"/>
      <path class="st0" d="M16,20.7c1.5-3.7-.3-5.8-3.4-6.8-.9-.3-1.8-.3-2.3-.8-.9-.7-2.1-2.2-2.8-2.4-1-.3-.7.6-.7.6,0,0,1.3,1.9,1.4,2.2.2.2.9.9,1.2.9-.2,0-.8-.4-1.3-.8-.2-.1-.3-.4-.4-.6-.6-.9-1.2-1.5-1.2-1.9s.4-.5.4-.5c0,0-.3-.8-.3-2.4,0-1-.6-1.4-.9-1.2-.1,0,0,.8,0,1.1,0,1.1-.3,3,0,3.7.4,1,1.1,3.2,2.4,4.2,3.4,2.7,5.9.8,8.1,4.9h0Z"/>
    </g>
  </g>
  <g>
    <g>
      <path class="st3" d="M20.2,10.1s.2-.4.7-.4c.4,0,.8.3,1.3.1,0,0-1,1.2-1.9.4,0,0,.5-.3,1-.2,0,0-.5-.2-1.1,0h0Z"/>
      <path class="st3" d="M19.2,10.6s.4-.2.8.2c.3.3.3.8.8,1,0,0-1.5.1-1.6-1.1,0,0,.6.2.9.6,0,0-.2-.5-.9-.7h0Z"/>
      <path class="st3" d="M19.6,8.9s.2.4.7.4c.4,0,.7-.3,1.1-.2,0,0-1-1-1.7-.2,0,0,.5.2,1,0,0,0-.5.2-1,0h0Z"/>
      <path class="st3" d="M18.7,9.2s0,.3.3.5c.2.1.5,0,.8.3,0,0-.2-1-1-.8,0,0,.2.3.5.4,0,0-.4,0-.6-.4h0Z"/>
      <path class="st3" d="M17.6,10.5s0,.3.3.5c.2.1.5,0,.8.3,0,0-.2-1-1-.8,0,0,.2.3.5.4,0,0-.4,0-.6-.4h0Z"/>
      <path class="st3" d="M18.7,8.8s-.2-.4.1-.7c.2-.3.7-.3.9-.7,0,0,.2,1.4-.9,1.5,0,0,.1-.6.5-.8,0,0-.5.2-.6.8h0Z"/>
      <path class="st3" d="M17.5,9.3s-.2-.2-.1-.5c0-.3.4-.4.4-.7,0,0,.5.9-.2,1.2,0,0,0-.4.1-.7,0,0-.3.3-.2.7h0Z"/>
      <path class="st3" d="M16.3,8.9s0-.3.2-.5c.2-.2.5-.1.7-.4,0,0,0,1-.9.9,0,0,.2-.4.5-.5,0,0-.4,0-.6.5Z"/>
      <path class="st3" d="M20.1,7.9s0-.3.2-.5c.2-.2.5-.1.8-.4,0,0-.1,1-.9.9,0,0,.2-.4.5-.5,0,0-.4,0-.6.5h0Z"/>
      <path class="st3" d="M13.1,10.6s-.2-.2-.5,0c-.3.1-.4.4-.7.5,0,0,.9.4,1.2-.3,0,0-.4,0-.7.2,0,0,.2-.3.7-.3h0Z"/>
      <path class="st3" d="M16.4,4.7s-.4-.2-.5-.7c0-.4.2-.8,0-1.3,0,0,1.3.9.6,1.8,0,0-.4-.5-.3-1,0,0-.2.5.2,1.1h0Z"/>
      <path class="st3" d="M17,5.8s-.3-.4,0-.8c.2-.4.7-.6.8-1,0,0,.6,1.4-.6,1.8,0,0,0-.6.4-1,0,0-.5.3-.5,1Z"/>
      <path class="st3" d="M16.4,6.3s.2-.4,0-.8c-.2-.4-.7-.5-.9-1,0,0-.4,1.5.7,1.8,0,0,0-.6-.4-1,0,0,.5.3.6,1h0Z"/>
      <path class="st3" d="M14.7,6.3s-.2-.4-.7-.4c-.4,0-.8.3-1.3.2,0,0,1,1.2,1.9.3,0,0-.6-.3-1.1-.2,0,0,.5-.2,1.1,0h0Z"/>
      <path class="st3" d="M15.3,7.3s-.2-.3-.6-.4c-.4,0-.6.3-1,.2,0,0,.8,1,1.6.3,0,0-.4-.2-.9-.1,0,0,.4-.2.9,0h0Z"/>
      <path class="st3" d="M16.7,7.6s0-.4.3-.6c.3-.2.7,0,1-.4,0,0-.2,1.2-1.2,1,0,0,.3-.4.7-.6,0,0-.5,0-.8.5h0Z"/>
      <path class="st3" d="M12.8,8.8s-.4,0-.5-.4c-.1-.3,0-.7-.2-1,0,0,1.2.5.8,1.4,0,0-.4-.3-.4-.8,0,0,0,.5.4.8h0Z"/>
      <path class="st3" d="M13.9,9.3s-.3,0-.4-.4c-.1-.3,0-.6-.2-.9,0,0,1,.4.7,1.2,0,0-.3-.3-.4-.6,0,0,0,.4.3.7Z"/>
      <path class="st3" d="M12,10.1s-.2-.3-.6-.2c-.4,0-.6.4-1,.4,0,0,1,.8,1.6,0,0,0-.5-.1-.9,0,0,0,.4-.3.9-.1h0Z"/>
      <path class="st3" d="M14.2,5.5s-.5,0-.9-.4c-.3-.4-.2-.9-.6-1.3,0,0,1.7.2,1.5,1.5,0,0-.6-.3-.8-.9,0,0,.1.6.8,1Z"/>
      <path class="st3" d="M11.7,8.9s-.3.3-.8,0c-.4-.2-.5-.6-.9-.7,0,0,1.3-.5,1.7.5,0,0-.6,0-.9-.3,0,0,.3.4.9.4Z"/>
      <path class="st3" d="M11.8,9.7s.1-.2,0-.3c0-.1-.3-.2-.3-.4,0,0-.2.6.3.7,0,0,0-.2-.2-.4,0,0,.2.1.2.4h0Z"/>
      <path class="st3" d="M12.5,10s-.2,0-.3-.3c0-.2.1-.4,0-.6,0,0,.6.4.3.9,0,0-.2-.2-.1-.5,0,0,0,.3.1.6h0Z"/>
    </g>
    <path class="st1" d="M18.3,10.1c-.5,0-.8,0-1,.2.5-.7,1.2-1.2,2.3-1.4,0,0-3.2.2-3.5,4.1,0-.3-.2-1.6-.2-2.2,0-1,.5-2,.7-3,.2-1,.3-2,0-3,.2,1.1,0,2-.1,2.4-.1.5-.3.9-.5,1.4,0-.8-.3-2.2-1.6-2.9,0,0,.9.6,1.2,2.1.1.7,0,1.4-.1,2,0,.2-.1.5-.2.7,0,.1,0,.3,0,.5-.5-.8-1.6-2-3.4-2,0,0,1.4.1,2.5,1.3,0,0-1.2.6-2.4-.4,0,0,.9,1.2,2.7.7.4.6.7,1.2.7,1.9h0c0,.6,0,1.1.2,1.6h.6s.4,0,.4,0c0,0-.2-1.7.5-3.1.1-.2.3-.4.5-.4.4-.1.8-.1,1.4,0,.8.2,1.4-.1,1.4-.1-.9.2-1.4,0-1.9-.1h0Z"/>
  </g>
</svg>