<?xml version="1.0" encoding="UTF-8"?>
<svg id="Layer_1" xmlns="http://www.w3.org/2000/svg" version="1.1" viewBox="0 0 154.67 100">
  <!-- Generator: Adobe Illustrator 29.3.1, SVG Export Plug-In . SVG Version: 2.1.0 Build 151)  -->
  <defs>
    <style>
      .st0 {
        fill: #166a36;
      }

      .st1 {
        fill-rule: evenodd;
      }

      .st1, .st2 {
        fill: #146936;
      }

      .st3 {
        fill: #54b848;
      }
    </style>
  </defs>
  <g>
    <g>
      <path class="st2" d="M78.28,70.27c-1.18.36-1.44.31-4-.84.04.23.08.43.08.46-.36-.36-.76-.9-1.27-1.28-1.39-1-1.4-.97-1.48-.91-.81-.73-1.54-1.52-2.39-2.13-.36-.26-.99-.29-1.45-.2-1.12.21-1.96-.07-2.7-.96-.28-.34-.82-.46-1.33-.53.31.79.62,1.57.98,2.49.25-.03.64-.08,1.03-.13-.92.7-1.37.54-1.6-.58-.22-1.1-1.32-2.21-2.2-2.29.49,1.11.97,2.27,1.53,3.38.13.26.5.46.81.56.43.14.92.1,1.35.25.91.32,1.78.64,2.76.16.27-.13.69.03,1.04.11-.59.09-1.17.18-1.76.27,0,.07,0,.14,0,.2.56.32,1.12.62,1.67.95.35.21.75.41.99.72.34.45.7.58,1.22.47-.24.05-.47.09-.81.16.87,1.26,2.32.98,3.43,1.51-.36-.04-.72-.08-1.16-.14.28.59.53,1.1.78,1.61-.05.03-.11.05-.16.08-.13-.27-.26-.54-.39-.81-.28-.57-.7-.98-1.34-1.12-.7-.16-1.18-.55-1.57-1.17-.25-.41-.71-.68-1.16-1.09-.13.48-.21.81-.3,1.14.39-1.42-.76-1.6-1.62-1.93-.93-.36-1.9-.6-2.9-.79.32.87.89,1.42,1.65,1.78,1.22.59,2.47,1.14,3.2,2.38.05.09.19.18.29.18,1.1.05,1.46.97,2,1.68.08.11.03.32.05.58-.54-.85-.85-1.78-2-1.92,1.2,1.72,1.18,3.58.63,5.52.72.1,1.3.18,1.88.26,0,.05,0,.11-.01.16h-1.86c-.26.58-.56,1.25-.85,1.91-.07-.02-.13-.05-.2-.08.19-.42.43-.82.56-1.27.14-.5.19-1.03.26-1.45-.63.16-1.24.31-1.84.46-.02-.03-.04-.07-.07-.1.14-.1.32-.3.43-.26.92.29,1.23-.43,1.51-.99.47-.94.11-2.23-.65-3.05-.16-.17-.11-.53-.23-.76-.47-.9-1.12-1.63-2.06-2.07-.54-.25-1.09-.51-1.65-.77-.05.83.18,1.14.76,1.24-.24.29-.53.63-.86,1.03.03-.16.07-.33.08-.51.02-.21.09-.54-.01-.61-.7-.52-.44-1.49-1.07-2.09-.62-.58-1.08-1.36-1.51-2.11-.53-.91-.92-1.91-1.43-2.83-.32-.57-.34-.52-.74,0-.15.19-.46.25-.87.46.26.15.39.23.52.3-.03.04-.06.08-.09.12-.17-.13-.34-.25-.52-.38.36-.53.68-1,.98-1.46-.97-1.91-2.55-1.8-4.27-1.29.25.73.94.62,1.51.83-.31.04-.62.07-.95.11-.14.85.58.57.92.86-.37-.03-.83.07-1.08-.13-.28-.22-.36-.69-.56-1.1-.32.19-.58.35-1.02.62.32-.36.5-.57.79-.9-.79-.31-1.54-.56-2.23-.89-.72-.34-1.39-.77-2.22-1.09.32.53.58,1.1.96,1.58,1.42,1.77,3.25,2.8,5.53,3.06.94.11,1.02.3,1,1.45-.17-.39-.24-.91-.52-1.1-.29-.19-.79,0-1.19-.04-.2-.01-.4-.13-.66-.22.12.87.44,1.51,1.23,1.85.58.25,1.14.54,1.71.79.17.08.4.17.56.12.72-.24,1.19.15,1.67.6-.52-.17-1.03-.33-1.54-.5-.05.09-.09.18-.14.27.72,1.18,1.84,1.88,3.07,2.49-.2-.05-.39-.11-.68-.19.82,1.79,2.04,3.08,3.67,4.01-1.51-.53-2.54-1.61-3.48-2.86-.5-.66-1.14-1.22-1.72-1.82-.39-.39-.77-.79-1.2-1.14-.39-.31-.82-.58-1.27-.8-.66-.33-1.35-.62-2.09-.95-.13.26-.29.6-.46.93.35-1.26.51-2.44-1.24-2.92-.09,1.26.27,2.37.78,3.43.35.71.83,1.36,1.25,2.04.47.75,1.07,1.17,2.05.67-.03-.39-.07-.84-.1-1.28.05-.01.09-.03.14-.04.1.42.2.83.32,1.35.97-.43,1.89-.51,2.38.82-.2-.14-.35-.26-.53-.39-.04.16-.08.31-.12.45-.02,0-.05,0-.08,0,0-.05,0-.1-.01-.15-.06-.24-.06-.59-.22-.68-.16-.1-.48.03-.72.1-.55.15-1.1.32-1.72.5.18.13.32.26.48.33,1.03.41,1.79,1.1,2.37,2.05.15.24.58.34.91.43.26.07.54.01.83.16-.39.05-.78.11-1.18.16,0,.03-.03.1-.02.11.89.48,1.47,1.19,1.68,2.19.05.21.24.45.44.56.7.41,1.1.95.93,1.86.07-1.05-.78-1.33-1.45-1.85-.14,1.05-.32,2.06-.39,3.08-.01.22.31.57.56.66,1.06.39,1.51,1.25,1.83,2.22.02.07.01.14.02.22-.2-.23-.39-.45-.64-.74.23-.48-.2-1.01-1.52-1.51-.09.44-.18.88-.27,1.32-.13.02-.32.05-.61.09.86-.69.62-1.45.26-2.26-.24.14-.48.28-.72.41,1.08-.72,1.01-1.89,1.03-3.02.01-.41-.02-.82-.05-1.23-.06-.6-.33-1-.9-1.29-.4-.21-.7-.63-1.01-.99-.27-.32-.48-.7-.86-1.25-.84,1.84-.76,3.66-1.21,5.36.23-1.84-.04-3.76.85-5.54-.9-.54-1.85-1.1-2.95-1.75.1.41.16.75.26,1.08.1.32.23.63.23.99-.22-.47-.17-1.17-.99-.94.07-.37.1-.78.24-1.15.2-.52-.23-.73-.42-1.06-.65-1.12-1.3-2.25-1.92-3.33-.47.54-.43,1.69.13,2.38.11.14.02.43.05.65.04.28.11.56.07.85-.26-.66-.58-1.31-.76-2-.21-.8-.22-1.63.23-2.39.44-.75.14-2.16-.55-2.69-.3-.23-.6-.47-1.05-.82-.03.38-.05.63-.07.93-.11.02-.38.08-.69.16.35.48.63.85.89,1.24.03.04-.1.18-.09.16-.23-.27-.41-.63-.69-.78-.45-.25-.51-.47-.18-.85.68-.78.67-.97.07-1.78-.3-.4-.55-.84-.72-1.09-.26,1.59-.56,3.3-.8,5.01-.14,1.03.37,1.52,1.46,1.51.13,0,.27.08.6.19-.38.04-.55.06-.72.08.44.63.86,1.25,1.28,1.86-.05.03-.09.06-.14.1-.26-.36-.52-.72-.82-1.13-.14.23-.23.38-.32.54.22-.75-.21-1.05-.94-1.31.43,1.58.96,2.99,1.94,4.21.97,1.21,2.08,2.19,3.83,2.25-.15.17-.24.26-.25.27-.58-.17-1.15-.34-1.79-.53.44.72.84,1.39,1.24,2.05-.04.03-.08.05-.12.08-.14-.17-.29-.33-.45-.53-.1.12-.2.24-.29.35-.03-.05-.08-.11-.07-.13.27-.37.15-.69-.13-.99-.53-.59-1.05-1.2-1.58-1.79-.65-.73-1.31-1.46-1.95-2.17-.4,1.06-.16,1.73.84,2.28.64.35.46.84.23,1.21-.09-.28-.1-.81-.33-.93-.31-.17-.76-.59-1.13-.17-.2-1.84.36-3.85-.98-5.58-.67,1.8-1,3.67-.89,5.6.01.22.2.43.31.64.7,1.4,1.32,2.85,2.14,4.18.51.83.94,1.87,2.13,2.08.22.04.46.19.62.36.53.6,1.21.79,1.98.74l-.02.19c-.47-.04-.97.01-1.39-.15-.47-.18-.86-.56-1.36-.76.4.81.98,1.47,1.79,1.83.84.38,1.54.87,2.02,1.68.09.15.3.23.32.25.04.37.08.69.11,1.01-.38-.47-.86-.9-1.06-1.43-.35-.91-1.16-.85-1.75-1.24-.07.04-.13.08-.2.12.07.62.15,1.23.23,1.85-.07,0-.14,0-.21,0-.06-.59-.11-1.18-.18-1.77-.02-.16-.06-.35-.16-.45-.84-.93-1.71-1.84-2.57-2.75-.04-.05-.12-.07-.18-.1-.44,1.23-.29,1.95.54,2.61-.47.2-.42,1.05.11,2.11-.16-.07-.32-.15-.52-.25-.13-.75-.28-1.66-.44-2.57-.12,0-.23-.01-.35-.02-.3,1.44-.61,2.88-.87,4.33-.03.16.17.44.34.54.72.47,1.47.9,2.16,1.45-.29-.11-.57-.22-1.09-.42.41.99.76,1.82,1.17,2.79-.34-.48-.74-.85-.89-1.3-.47-1.38-.72-1.79-1.65-2.18.24,2.38.8,4.71.05,7.06.79-3.21-.9-6.27-.48-9.54-.45.39-.89.7-1.22,1.1-.16.19-.16.57-.11.85.11.66.3,1.31.45,1.97.02.1-.05.21-.08.36-.26-.85-.55-1.63-.7-2.43-.06-.34.06-.89.31-1.08,1.94-1.48,2.25-3.66,2.44-5.82.07-.81-.46-1.68-.73-2.56-.41.14-.68.17-.89.31-.18.12-.44.39-.4.53.29,1.07-.26,2.05-.33,3.09,0-1.1-.03-2.2.02-3.3.01-.22.26-.48.46-.64.19-.16.46-.21.79-.35-.44-.68-.82-1.28-1.3-2.04-.64.97-1.22,1.81-1.74,2.69-.1.16-.01.47.06.68.23.66.58,1.29.72,1.97.08.38-.03.97-.29,1.23-.55.55-.78,1.13-.73,1.88.03.6,0,1.19-.14,1.79,0-.92-.05-1.84.02-2.75.02-.32.29-.66.53-.9.42-.42.49-.87.26-1.38-.24-.55-.51-1.09-.97-1.68-.42,1.36-.84,2.72-1.26,4.07-.04-.01-.09-.03-.13-.04.17-.81.29-1.63.51-2.42.23-.83.52-1.66.87-2.45.35-.79.79-1.54,1.2-2.3-.05-.05-.1-.11-.15-.17-.49.42-.98.85-1.43,1.24-.03-.04-.15-.22-.23-.33.19-.13.42-.29.64-.44.34-.23.65-.57,1.02-.66.74-.2.92-.61.88-1.33-.13-2.13.28-4.18.92-6.2.33-1.05.55-2.13.83-3.26q-1.27.21-1.32,1.61c-.14-.28-.29-.56-.43-.84-.08-.03-.16-.07-.23-.1.43-.32.84-.67,1.29-.96.44-.29.72-.63.65-1.19-.05-.41-.08-.82-.14-1.38-.31.52-.5.96-.8,1.3-.57.65-1.12,1.38-1.83,1.84-.96.62-.92,1.48-.78,2.34.09.53.22,1.11.78,1.55.37.3.41,1.02.46,1.61-.23-.48-.46-.96-.69-1.44-.09.02-.18.05-.27.07.1.77,0,1.64.34,2.28.46.86.23,1.36-.35,1.93-.14.13-.23.31-.34.47-.05-.04-.1-.08-.16-.13.05-.07.09-.16.15-.22.57-.62,1-1.24.28-2.06-.2-.23-.22-.61-.38-1.1-.16.47-.27.79-.43,1.27-.1-1.12.95-1.94.22-3.02-.16.37-.3.73-.47,1.07-.2.41-.39.84-.66,1.2-.46.61-.46,1.25-.25,1.93.15.47.23.71.17.91-.03-.03-.05-.05-.08-.08-.21-.48-.42-.96-.71-1.6-.32.5-.68.94-.9,1.43-.32.72-.48,1.52-1.21,2.01-.13.08-.22.43-.15.57.36.68.77,1.33,1.17,2-.03.04-.17.2-.21.24-.29-.5-.64-1.09-1-1.71-.43.33-.79.61-1.15.89.51-.54,1.04-.99.9-1.85-.02-.14.25-.32.36-.5.3-.47.58-.94.81-1.44-1.49.42-2.63,1.18-3.31,2.56-.16.32-.51.58-.83.77-.79.47-1.4,1.94-.94,2.68.26.42.84.64,1.23.91-.68.37.14.89-.04,1.33-.59-.43-.17-1.52-1.19-1.79.1,1.62.25,3.11,1.53,4.21-.06.04-.12.09-.18.13-.43-.56-.87-1.12-1.34-1.73-.62.09-.71.6-.71,1.19-.03-.23-.06-.47-.12-.94-.54.56-.95.99-1.35,1.41.05-.21.11-.48.19-.85.42-.23,1.02-.53,1.57-.9.18-.12.35-.44.33-.66-.1-1.12-.27-2.24-.41-3.36-.34.2-.68.41-.87.52.37-.55.78-1.21,1.25-1.83.21-.27.54-.45.8-.7.33-.31.64-.64.96-.96-.06-.06-.11-.13-.17-.19-.32.18-.64.35-.96.53-.02-.02-.04-.05-.05-.08,1.2-.9,2.4-1.79,3.72-2.77-.47-.09-.9-.18-1.32-.26.01-.06.02-.13.03-.19.42.08.85.18,1.27.23.21.02.51.05.64-.07,1.91-1.75,3.04-3.89,3.19-6.55-1.22.1-1.43,1.06-1.79,1.87-.25.57-.46,1.17-.72,1.73-.23.5-.94.81-1.34.64.86-.23,1.3-.81,1.42-1.85-1.52.28-2.74,1.12-3.66,2.31-.39.51-.49,1.24-.77,1.84-.23.48-.54.91-.92,1.53.05-1.2,1.24-1.86.99-3.06-.97,1.24-1.93,2.48-2.85,3.65-.01-.04-.03-.11-.05-.19-.89.63-1.73,1.41-2.89.77,1.34.34,2.22-.43,3.2-1.48-.52.1-.85.17-1.19.23-.04-.07-.09-.13-.13-.2,1.92.2,2.23-1.36,2.95-2.38-.19-.24-.36-.46-.56-.71-.31.23-.61.45-.9.67-.03-.04-.05-.07-.08-.11.32-.27.64-.53,1.03-.86.57.93,1.12.55,1.67,0,.61-.6,1.24-1.18,1.86-1.77-.06-.09-.12-.17-.18-.26-.62.27-1.23.53-1.79.77.44-.84,1.33-1,2.23-.98,1.29.02,2.18-.64,2.43-2.02-.63.08-1.23.17-1.83.25-.02-.07-.04-.14-.06-.21.42-.1.86-.16,1.27-.3.83-.29,1.7-.54,2.46-.97,1.48-.84,2.65-2.01,3.39-3.84-.44.27-.7.44-.97.61-1.09.69-2.25,1.15-3.57,1.3-.58.07-1.1.66-1.66,1-.29.17-.62.3-.95.46.56-.5,1.08-.96,1.62-1.45-1.12-.6-2.47-.32-3.24.62-.75.91-.83,1.14-1.11,3.11-.11-.34-.19-.59-.27-.83-.06,0-.11-.01-.17-.02-.11.25-.24.49-.34.75-.62,1.63-1.5,3.07-2.83,4.23-.54.47-.72,1.11-.58,1.85-.06-.13-.12-.26-.19-.41-.37.27-.7.52-1.03.76-.05-.05-.09-.1-.13-.16.2-.12.4-.24.6-.35-.02-.05-.05-.1-.08-.16-.24-.04-.48-.09-.72-.13.62,0,1.23.01,1.29-.87-1.97.48-3.14,1.82-3.86,3.58-.27.65-.4,1.38-.46,2.08-.03.31.28.65.44.98.12.25.23.49.25.79-.13-.19-.27-.37-.4-.56-.08.02-.16.05-.23.07.26,1.06.51,2.12.8,3.3-.34-.75-.63-1.38-.92-2.03-.61.43-1.23.86-1.8,1.27-.03-.32,0-.66.64-.8.79-.16,1.21-.87,1.01-1.63-.47-1.72-.17-3.3.87-4.83-.99-.06-1.22.73-1.74,1.14.33-.67.67-1.33,1.56-1.45.17-.02.39-.13.47-.26.67-1.05,1.69-1.64,2.78-2.13.88-.39,1.61-.94,2.19-1.98-.63.1-1.13.17-1.62.27-.08.02-.19.16-.2.26-.07,1.03-.87.98-1.71,1.18.56-.44,1.43-.26,1.41-1.31-1.72.81-3.56,1.21-4.53,2.99-.08.14-.31.24-.49.28-1.14.28-1.98.83-2.13,2.12-.01.1-.21.18-.4.19.27-.59.54-1.17.86-1.86-.42.04-.79.07-1.17.1,0-.02,0-.04,0-.06.81-.21,1.62-.38,2.42-.63.33-.1.74-.31.87-.59.5-1.06,1.46-1.51,2.38-2.03.29-.17.58-.32.92-.5-.7-.54-1.4-.46-2.12-.17.71-.5,1.17-.52,2-.26.33.1.73.08,1.08.02.61-.12,1.21-.49,1.81-.46,1.29.05,1.51-.83,1.92-1.94-.63.27-1.07.47-1.52.66-.17-.56.56-.65.89-.69.54-.07.73-.33.92-.74.22-.45.5-.88.83-1.43-1.02.27-1.98.46-2.87.81-.33.13-.69.62-.72.97-.06.7-.42.9-1.08,1,.34-.24.62-.43.89-.63-.07-.04-.14-.07-.21-.1-.77,0-1.55.03-2.32-.01-.65-.03-1.16.16-1.63.63-.44.45-.97.81-1.42,1.24-.3.29-.54.65-.81.98,0-.02-.05-.13-.1-.28-.87.67-2.06,1.02-2.35,2.23.03-.22.06-.44.1-.66-2.98,1.37-2.51,1.14-3.68.95.65-.15,1.57-.25,2.39-.59.82-.35,1.54-.95,2.34-1.46-.9-.67-1.7-.03-2.49.03.84-.43,1.68-.8,2.62-.4.11.05.3,0,.4-.07,1-.84,2-1.68,3.08-2.6-1.29-.76-2.41-1.48-3.87-1.28-1.07.14-1.42.42-1.84,1.48.04-.18.06-.37.13-.53.1-.23.24-.44.44-.78-1.15.12-2.14.22-3.18.33.51-.15.85-.49,1.47-.41.74.1,1.55-.05,2.29-.26,1.56-.44,2.89.08,4.23.75.38.19.85.17,1.29.22.21.02.45-.07.65-.02,1.25.3,2.19-.08,2.81-1.31-1.05-.54-2.05.21-3.17.23.29-.14.49-.23.75-.35-.26-.3-.48-.54-.7-.79.01-.01.03-.03.04-.04.33.23.64.54,1.01.69.45.19.75-.1.95-.51,1.11.59,2.25.58,3.48.14,1.16-.42,2.29-.86,3.14-1.87-.96-.14-1.88-.43-2.82.33-.47.38-1.21.42-1.83.61-.02-.06-.04-.12-.07-.18.59-.22,1.17-.45,1.76-.67-.02-.07-.04-.15-.05-.22-.46.04-.93.14-1.38.1-1.34-.12-2.67-.29-4.01-.45-.73-.09-1.47-.28-1.92.62-.17.33-.55.56-.85.83-.02-.15-.03-.3-.05-.48-.59-.04-1.18-.09-1.77-.13.83-.39,1.85.21,2.5-.73-1.55.06-3.12-.1-4.49.93-.8.6-1.72.79-2.74.51-.39-.11-.85.03-1.28.04-.17,0-.35-.04-.53-.07-.47-.08-.95-.16-1.52-.25.18-.03.27-.06.36-.05,1.19.08,2.38.24,3.57.21.68-.02,1.4-.02,1.94-.82.31-.47,1.25-.56,1.93-.71.82-.19,1.66-.26,2.53-.39-.8-1.01-1.58-.41-2.33-.06.35-.27.69-.55,1.21-.96-1.18-.12-2.22-.22-3.26-.33,0-.05,0-.09,0-.14.35.02.69.05,1.03.06.36.02.72-.01,1.08.04.46.06.97.07,1.35.3,1.01.61,2.06.9,3.24,1.1,2.16.37,4.27.15,6.42.04,1.18-.06,2.4.2,3.55.51,1.38.36,2.7.54,4.01-.15.14-.07.27-.17.4-.34-1.35.34-2.53,0-3.65-.7-.23-.14-.59-.08-1.11-.14.52-.11.85-.18,1.15-.24-.39-.54-1.17-.86-1.92-.71-.28.06-.57.13-.83.25-.9.41-1.73.72-2.72.07-.08-.05-.17-.1-.27-.13.33.08.67.15,1,.22.24.05.52.06.75-.02.47-.16.92-.4,1.37-.78-.58-.11-1.15-.21-1.73-.32,0-.05.01-.1.02-.15.67.1,1.34.19,2,.28.23.03.47.1.7.1.99-.02,1.76.38,2.44,1.08.27.28.73.52,1.1.53.72.02,1.46-.07,2.14-.27.29-.08.57-.54.66-.88.03-.12.05-.25.05-.38,0-.13,0-.27,0-.41.14-.2.27-.41.38-.63h5.07c.16.26.35.5.59.72v.68c0,.54.25.87.78.96.57.09,1.15.19,1.72.24.57.05,1.07-.06,1.47-.57.59-.75,2.47-1.15,3.36-.81.2.08.4.17.6.26.68.35,1.34.72,2.08.11.11-.09.32-.05.45-.06-.93.91-1.92.65-2.96.16-.65-.31-1.3-.47-1.95.13-.25.23-.68.26-1.03.39-.01.07-.02.13-.04.2.44.24.88.48,1.29.7.03-.02-.01.03-.03.02-1.07-.48-2.08-.03-3.11.17-.45.09-.95-.05-1.43-.08-.02.06-.05.12-.08.19.62.21,1.24.53,1.88.6.65.07,1.39.05,2-.18,1.85-.68,3.72-.76,5.65-.53.43.05.89-.07,1.33-.12.59-.07,1.18-.14,1.8-.06-.41.08-.82.16-1.23.24,0,.05.01.09.02.14.52-.05,1.04-.09,1.56-.15.69-.08,1.4-.28,2.08-.22,1.02.09,1.86-.23,2.64-.79.53-.38,1.04-.55,1.69-.4.31.07.67-.03,1-.04.44,0,.87,0,1.45,0-1.63.51-3.39-.23-4.65,1.31.43.07.84.12,1.24.22.72.19,1.42.42,2.14.61.27.07.56.05.84.07-.05.05-.14.16-.3.32.67.48,1.36.75,2.2.63.57-.08,1.16-.37,1.68.11-.59.05-1.18.18-1.76.13-.7-.06-1.53-.1-2.05-.48-1.45-1.07-3.07-1.01-4.85-1.14.59,1.1,1.67.31,2.38.9h-1.51c-.03.29-.05.53-.06.62-.17-.19-.41-.46-.65-.72-.05-.05-.14-.07-.17-.13-.53-1.12-1.52-.84-2.31-.61-1.7.48-3.39.45-5.1.27-.21-.02-.42,0-.63,0-.01.06-.02.13-.03.19.77.15,1.55.3,2.52.48-.9.13-1.63-.1-2.39.16-.81-.94-1.2-1.05-2.41-.63,3.02,2.52,5.4,2.44,6.57,1.63.44.82.75.79,2.09-.17-.23.26-.46.52-.75.85.23.12.44.23.67.36-1.06,0-2.05-.77-3.13-.22.61,1.11,1.45,1.64,2.7,1.31.07-.02.15-.03.22-.01,1.17.39,2.08-.29,3.04-.74.2-.09.38-.28.51-.46.53-.75,1.11-.87,1.95-.35-.65-.13-1.27-.3-1.61.38,1.84.21,3.67.42,5.5.63,0,.06-.01.12-.02.18-.86-.07-1.71-.13-2.65-.2.12.28.2.49.29.7-.38-.7-1-.94-1.74-.9-.68.03-1.36.13-2.04.2,0,.09,0,.18,0,.26.42.11.84.22,1.36.36-1.03.13-2.08-.53-2.89.4.5.87.59.87,1.54.66.6-.13,1.23-.09,1.79-.12.12.23.22.44.33.66-.81-.57-1.63-.48-2.68-.09.76.6,1.38,1.11,2.01,1.6.06.05.2.06.27.03,1.16-.54,2.14.19,3.18.5-.97.04-1.9-.91-2.98-.18,1.54,1.08,2.95,2.32,5.01,1.96Z"/>
      <g>
        <path class="st1" d="M48.64,65.66c-4.9-12.07.92-18.96,11.24-22.53,3.09-1.06,5.83-1.09,7.73-2.48,2.99-2.18,7.01-7.23,9.35-7.93,3.38-1.02,2.24,1.86,2.24,1.86,0,0-4.19,6.42-4.75,7.08-.57.66-3.13,2.85-3.89,3.05.78.04,2.72-1.26,4.44-2.77.52-.46.9-1.21,1.38-1.93,2.06-3.11,3.81-4.82,3.98-6.44.18-1.62-1.47-1.7-1.47-1.7,0,0,1.11-2.76,1-7.91-.07-3.24,2.05-4.58,3.02-4.02.44.25.28,2.67.31,3.51.09,3.66.88,9.72-.09,12.21-1.22,3.15-3.77,10.69-7.8,13.93-11.18,8.99-19.62,2.66-26.68,16.05h0Z"/>
        <path class="st1" d="M48.51,65.66c4.9-12.07-.91-18.96-11.24-22.53-3.09-1.06-5.83-1.09-7.73-2.48-2.99-2.18-7.01-7.23-9.35-7.93-3.38-1.02-2.24,1.86-2.24,1.86,0,0,4.18,6.42,4.75,7.08.57.66,3.13,2.85,3.89,3.05-.78.04-2.72-1.26-4.44-2.77-.51-.46-.9-1.21-1.38-1.93-2.06-3.11-3.81-4.82-3.99-6.44-.17-1.62,1.47-1.7,1.47-1.7,0,0-1.11-2.76-1-7.91.07-3.24-2.04-4.58-3.02-4.02-.44.25-.28,2.67-.31,3.51-.09,3.66-.87,9.72.09,12.21,1.23,3.15,3.77,10.69,7.8,13.93,11.18,8.99,19.61,2.66,26.68,16.05h0Z"/>
      </g>
    </g>
    <g>
      <g>
        <path class="st3" d="M62.43,30.68s.62-1.4,2.29-1.5c1.44-.09,2.63,1.03,4.19.51,0,0-3.24,3.94-6.23,1.3,0,0,1.77-1.03,3.44-.61,0,0-1.75-.75-3.69.31Z"/>
        <path class="st3" d="M59.03,32.31s1.43-.54,2.68.58c1.08.96,1.12,2.59,2.59,3.34,0,0-5.08.47-5.3-3.52,0,0,1.97.54,2.86,2.02,0,0-.7-1.77-2.82-2.41Z"/>
        <path class="st3" d="M60.45,26.49s.67,1.21,2.19,1.17c1.31-.03,2.29-1.14,3.74-.79,0,0-3.24-3.3-5.73-.67,0,0,1.68.78,3.15.28,0,0-1.52.81-3.36.01Z"/>
        <path class="st3" d="M57.4,27.71s-.04.99.9,1.53c.81.46,1.82.16,2.58.91,0,0-.75-3.22-3.25-2.54,0,0,.73,1.1,1.82,1.34,0,0-1.23-.07-2.06-1.24Z"/>
        <path class="st3" d="M53.94,31.98s-.04.99.9,1.53c.81.46,1.82.16,2.58.91,0,0-.75-3.22-3.25-2.54,0,0,.73,1.1,1.82,1.34,0,0-1.23-.07-2.06-1.24Z"/>
        <path class="st3" d="M57.45,26.4s-.54-1.27.43-2.44c.84-1.01,2.31-1.1,2.94-2.45,0,0,.59,4.58-3.01,4.92,0,0,.42-1.8,1.73-2.65,0,0-1.58.69-2.09,2.63Z"/>
        <path class="st3" d="M53.65,28.06s-.71-.71-.37-1.77c.29-.91,1.26-1.37,1.32-2.45,0,0,1.64,2.94-.7,4.14,0,0-.21-1.33.45-2.26,0,0-.88.9-.7,2.34Z"/>
        <path class="st3" d="M49.65,26.57s-.2-.99.66-1.68c.74-.6,1.8-.46,2.45-1.33,0,0-.23,3.35-2.85,3.08,0,0,.56-1.23,1.61-1.65,0,0-1.23.27-1.86,1.58Z"/>
        <path class="st3" d="M62.13,23.46s-.16-.99.73-1.65c.76-.57,1.82-.38,2.5-1.23,0,0-.37,3.34-2.98,2.96,0,0,.61-1.2,1.68-1.58,0,0-1.24.22-1.93,1.5Z"/>
        <path class="st3" d="M39.04,32.2s-.77-.64-1.79-.21c-.88.37-1.25,1.38-2.33,1.53,0,0,3.07,1.37,4.06-1.07,0,0-1.34-.09-2.21.65,0,0,.81-.96,2.27-.9Z"/>
        <path class="st3" d="M49.86,12.65s-1.45-.49-1.71-2.15c-.22-1.43.78-2.72.12-4.24,0,0,4.24,2.88,1.87,6.11,0,0-1.19-1.67-.93-3.39,0,0-.59,1.82.65,3.67Z"/>
        <path class="st3" d="M51.78,16.47s-.92-1.23-.19-2.74c.63-1.31,2.19-1.8,2.5-3.43,0,0,1.87,4.77-1.92,6.1,0,0-.03-2.05,1.15-3.32,0,0-1.51,1.17-1.54,3.39Z"/>
        <path class="st3" d="M49.74,18.18s.81-1.3-.05-2.75c-.74-1.25-2.34-1.6-2.79-3.19,0,0-1.44,4.92,2.45,5.9,0,0-.15-2.05-1.44-3.2,0,0,1.61,1.03,1.83,3.24Z"/>
        <path class="st3" d="M44.44,17.93s-.66-1.38-2.35-1.44c-1.45-.05-2.61,1.11-4.2.63,0,0,3.37,3.86,6.3,1.11,0,0-1.8-.98-3.47-.51,0,0,1.74-.8,3.72.2Z"/>
        <path class="st3" d="M46.13,21.33s-.54-1.13-1.92-1.18c-1.19-.04-2.14.91-3.44.52,0,0,2.76,3.16,5.16.91,0,0-1.48-.8-2.85-.42,0,0,1.42-.66,3.05.17Z"/>
        <path class="st3" d="M50.78,22.41s-.11-1.25,1.05-2c1-.64,2.3-.32,3.22-1.32,0,0-.75,4.13-3.96,3.43,0,0,.86-1.45,2.23-1.82,0,0-1.56.16-2.53,1.71Z"/>
        <path class="st3" d="M38.05,26.32s-1.25-.13-1.76-1.41c-.44-1.11.13-2.32-.67-3.41,0,0,3.91,1.53,2.6,4.55,0,0-1.25-1.12-1.36-2.54,0,0-.14,1.56,1.19,2.81Z"/>
        <path class="st3" d="M41.58,27.84s-1.06-.11-1.49-1.2c-.37-.94.11-1.96-.57-2.89,0,0,3.31,1.3,2.2,3.85,0,0-1.06-.95-1.15-2.15,0,0-.12,1.32,1,2.38Z"/>
        <path class="st3" d="M35.31,30.58s-.77-.99-2.13-.74c-1.17.22-1.9,1.34-3.25,1.24,0,0,3.37,2.5,5.24-.21,0,0-1.62-.47-2.87.19,0,0,1.25-.95,3.01-.49Z"/>
        <path class="st3" d="M42.75,15.46s-1.68.28-2.81-1.22c-.97-1.29-.66-3.09-2.11-4.23,0,0,5.67.6,5.04,5.02,0,0-2.04-1.02-2.69-2.84,0,0,.38,2.1,2.56,3.26Z"/>
        <path class="st3" d="M34.37,26.49s-1.09.84-2.47.2c-1.18-.55-1.65-1.95-3.11-2.21,0,0,4.27-1.74,5.51,1.66,0,0-1.85.05-3-1,0,0,1.07,1.35,3.07,1.34Z"/>
        <path class="st3" d="M34.88,29.18s.33-.51,0-1.09c-.29-.5-.92-.65-1.09-1.28,0,0-.6,1.95.94,2.36,0,0-.05-.81-.55-1.28,0,0,.64.42.71,1.3Z"/>
        <path class="st3" d="M36.99,30.34s-.73-.25-.85-1.08c-.11-.72.4-1.36.06-2.12,0,0,2.12,1.44.93,3.06,0,0-.59-.84-.46-1.69,0,0-.3.91.32,1.83Z"/>
      </g>
      <path class="st2" d="M56.06,30.64c-1.52-.26-2.78.18-3.47.52,1.54-2.2,3.89-4.04,7.47-4.75,0,0-10.65.52-11.54,13.53-.25-1.12-.73-5.1-.6-7.43.19-3.44,1.53-6.49,2.22-9.79.68-3.28,1.06-6.62.05-9.88.6,3.55-.1,6.49-.4,7.79-.36,1.55-1.07,3.01-1.66,4.49-.06-2.66-.86-7.13-5.11-9.58,0,0,3.11,1.98,4.03,6.97.41,2.22.23,4.5-.45,6.66-.24.76-.44,1.53-.55,2.32-.07.51-.12,1.02-.16,1.53-1.7-2.69-5.17-6.47-11.21-6.62,0,0,4.56.48,8.2,4.34,0,0-3.92,1.84-8.08-1.48,0,0,2.9,3.85,8.77,2.28,1.4,1.8,2.22,4,2.35,6.3,0,0,0,.02,0,.03.1,1.8.27,3.61.59,5.39l2.13-.09h.02s1.16-.05,1.16-.05c0,0-.59-5.59,1.82-10.37.32-.64.88-1.14,1.55-1.38,1.29-.46,2.77-.41,4.52.06,2.51.67,4.52-.39,4.52-.39-2.91.82-4.47-.1-6.18-.39Z"/>
    </g>
  </g>
  <g>
    <g>
      <path class="st0" d="M108.99,46.23v1.8h-1.21v2.12h-2v-2.12h-5.17v-1.28l4.17-7.04h2.99v6.51h1.21ZM105.78,41.66l-2.73,4.58h2.73v-4.58Z"/>
      <path class="st3" d="M119.63,48.29v1.86h-7.95v-10.44h2.01v8.57h5.94Z"/>
      <path class="st3" d="M121.44,39.94c0-.6.49-1.09,1.11-1.09s1.1.49,1.1,1.09-.49,1.07-1.1,1.07-1.11-.49-1.11-1.07ZM121.58,50.16v-8.05h1.93v8.05h-1.93Z"/>
      <path class="st3" d="M128.15,41.9v.21h2.26v1.62h-2.26v6.43h-1.93v-8.87c0-1.49,1.06-2.43,2.58-2.43h2.33v1.71h-1.61c-1.04,0-1.37.4-1.37,1.33Z"/>
      <path class="st3" d="M139.43,47.35c0,2-1.29,3.03-3.55,3.03-2.49,0-4.01-1.8-4.01-4.25,0-2.89,2.04-4.13,3.91-4.26,2.23-.15,3.48.94,3.48,2.43,0,.88-.25,1.58-1.47,2.1l-3.47,1.43c.35.52.88.81,1.47.81.91,0,1.61-.37,1.61-1.28h2.01ZM133.91,46.47l2.86-1.19c.32-.13.58-.28.58-.67,0-.64-.64-1.06-1.38-1.06-.97,0-2.07.72-2.07,2.58,0,.12,0,.22.01.34Z"/>
    </g>
    <g>
      <g>
        <path class="st0" d="M110.69,28.61v1.91h-2.53c-1.12,0-1.47.45-1.47,1.43v5.32h-2.08v-5.96c0-1.6,1.12-2.69,2.77-2.69h3.3Z"/>
        <path class="st0" d="M119.85,34.25c0,2.15-1.39,3.25-3.81,3.25-2.67,0-4.31-1.94-4.31-4.57,0-3.11,2.2-4.44,4.21-4.58,2.39-.16,3.75,1.01,3.75,2.61,0,.95-.26,1.7-1.58,2.26l-3.73,1.54c.38.56.94.87,1.58.87.97,0,1.73-.4,1.73-1.38h2.16ZM113.91,33.3l3.07-1.28c.35-.14.63-.3.63-.72,0-.69-.69-1.14-1.49-1.14-1.04,0-2.23.77-2.23,2.77,0,.13,0,.24.02.37Z"/>
        <path class="st0" d="M129.59,34.25c0,2.15-1.39,3.25-3.81,3.25-2.67,0-4.31-1.94-4.31-4.57,0-3.11,2.2-4.44,4.21-4.58,2.39-.16,3.75,1.01,3.75,2.61,0,.95-.26,1.7-1.58,2.26l-3.73,1.54c.38.56.94.87,1.58.87.97,0,1.73-.4,1.73-1.38h2.16ZM123.64,33.3l3.07-1.28c.35-.14.63-.3.63-.72,0-.69-.69-1.14-1.49-1.14-1.04,0-2.23.77-2.23,2.77,0,.13,0,.24.02.37Z"/>
        <path class="st0" d="M140.22,31.94v5.32h-2.06v-4.97c0-1.39-1.01-2.15-2.1-2.15-1.21,0-2.39.98-2.39,2.68v4.44h-2.08v-8.67h2.08v1.79c.68-1.27,1.85-2.03,3.12-2.03,1.8,0,3.43,1.2,3.43,3.59Z"/>
      </g>
      <g>
        <path class="st3" d="M103.68,33.57s-.67-2.5-3.36-1.96c-2.69.54-4.1,3.42-8.2.25,0,0,1.57.41,3.32-1.57,2.47-2.79,6.31.2,6.31.2,0,0-2.22-1.12-4.08.45-1.8,1.51-3.52,1.23-3.52,1.23,0,0,1.58.57,3.94-1.03,2.15-1.46,5.43-.13,5.6,2.42Z"/>
        <path class="st0" d="M100.32,31.61c-.78.16-1.45.51-2.11.85h1.99v.88c-.45,1.53-2.32,2.39-4.54,2.39-2.85,0-5.47-1.51-5.47-5.89,0-3.41,1.8-5.7,5.23-5.7,2.38,0,4.23,1.07,4.23,3.02h4.04c0-4.04-3.8-6.21-8.05-6.21-5.84,0-8.95,4.11-8.95,8.88,0,6.01,4.6,8.88,9.08,8.88,4.25,0,7.21-2.46,7.92-5.11v-.04s-.69-2.49-3.36-1.96Z"/>
      </g>
    </g>
  </g>
</svg>