<?xml version="1.0" encoding="UTF-8"?>
<svg id="Layer_1" xmlns="http://www.w3.org/2000/svg" version="1.1" viewBox="0 0 400 400">
  <!-- Generator: Adobe Illustrator 29.3.1, SVG Export Plug-In . SVG Version: 2.1.0 Build 151)  -->
  <defs>
    <style>
      .st0 {
        fill-rule: evenodd;
      }

      .st0, .st1 {
        fill: #146936;
      }

      .st2 {
        fill: #54b848;
      }
    </style>
  </defs>
  <g>
    <path class="st1" d="M313.52,277.49c-4.52,1.38-5.5,1.18-15.31-3.22.17.9.29,1.65.31,1.76-1.36-1.39-2.89-3.45-4.87-4.89-5.3-3.82-5.37-3.71-5.66-3.48-3.08-2.81-5.89-5.8-9.15-8.15-1.36-.98-3.78-1.1-5.56-.77-4.28.79-7.5-.28-10.33-3.65-1.08-1.29-3.15-1.77-5.08-2.04,1.19,3.01,2.37,6.01,3.76,9.5.96-.12,2.46-.3,3.93-.49-3.52,2.67-5.25,2.05-6.11-2.22-.85-4.19-5.06-8.44-8.42-8.76,1.88,4.25,3.7,8.67,5.84,12.93.5,1,1.91,1.77,3.08,2.15,1.64.54,3.53.39,5.15.96,3.49,1.22,6.81,2.44,10.54.61,1.05-.51,2.65.11,3.97.43-2.24.34-4.48.68-6.72,1.02-.01.26-.02.52-.02.78,2.13,1.21,4.3,2.35,6.39,3.62,1.34.8,2.86,1.57,3.77,2.76,1.3,1.71,2.66,2.22,4.66,1.78-.91.18-1.8.35-3.08.61,3.33,4.83,8.87,3.76,13.11,5.76-1.38-.17-2.76-.32-4.43-.52,1.08,2.24,2.03,4.19,2.97,6.15-.2.1-.41.2-.6.3-.51-1.03-1.01-2.05-1.51-3.08-1.07-2.19-2.66-3.75-5.12-4.29-2.67-.59-4.53-2.11-6-4.48-.96-1.55-2.72-2.59-4.45-4.15-.49,1.85-.81,3.1-1.14,4.34,1.5-5.44-2.9-6.11-6.18-7.39-3.55-1.37-7.26-2.3-11.08-3.02,1.23,3.31,3.41,5.42,6.31,6.81,4.68,2.24,9.43,4.36,12.25,9.12.21.34.73.69,1.11.7,4.19.19,5.59,3.7,7.63,6.41.31.43.12,1.22.21,2.21-2.06-3.27-3.24-6.81-7.65-7.36,4.59,6.58,4.53,13.68,2.42,21.1,2.74.39,4.97.7,7.2,1.01-.01.21-.03.41-.05.6h-7.13c-.99,2.22-2.12,4.77-3.27,7.32-.25-.09-.5-.19-.76-.29.73-1.6,1.64-3.15,2.13-4.84.55-1.91.72-3.94.99-5.56-2.42.61-4.73,1.2-7.03,1.77-.08-.12-.17-.26-.25-.4.55-.36,1.24-1.13,1.64-1.01,3.52,1.09,4.7-1.65,5.79-3.8,1.79-3.58.43-8.52-2.49-11.65-.61-.67-.43-2.01-.88-2.9-1.78-3.45-4.27-6.24-7.87-7.91-2.08-.97-4.17-1.94-6.31-2.93-.19,3.17.69,4.35,2.91,4.72-.92,1.09-2.01,2.39-3.3,3.94.1-.59.27-1.28.32-1.97.06-.8.33-2.05-.05-2.33-2.7-1.98-1.66-5.69-4.08-7.97-2.37-2.23-4.14-5.2-5.79-8.06-2.02-3.5-3.51-7.29-5.46-10.83-1.21-2.17-1.29-1.98-2.82-.02-.57.74-1.77.97-3.33,1.76.98.57,1.48.86,1.98,1.15-.11.16-.24.3-.35.45-.66-.48-1.31-.95-1.99-1.44,1.37-2.04,2.58-3.84,3.75-5.58-3.71-7.28-9.74-6.89-16.32-4.94.95,2.81,3.61,2.35,5.79,3.17-1.19.14-2.38.28-3.62.43-.53,3.26,2.22,2.16,3.51,3.3-1.4-.12-3.18.25-4.12-.48-1.07-.83-1.39-2.63-2.14-4.2-1.23.74-2.21,1.32-3.91,2.35,1.21-1.38,1.89-2.16,3.03-3.45-3.04-1.2-5.87-2.14-8.54-3.41-2.74-1.3-5.32-2.93-8.49-4.16,1.22,2.02,2.22,4.21,3.68,6.05,5.42,6.77,12.43,10.72,21.14,11.71,3.59.42,3.89,1.13,3.81,5.55-.66-1.51-.91-3.5-2-4.19-1.09-.71-3.02-.03-4.57-.14-.77-.05-1.52-.5-2.52-.84.45,3.34,1.69,5.76,4.69,7.07,2.21.96,4.34,2.05,6.53,3.02.67.29,1.53.67,2.12.47,2.74-.91,4.54.57,6.37,2.28-1.98-.65-3.94-1.28-5.9-1.91-.18.34-.35.7-.53,1.05,2.76,4.5,7.03,7.19,11.73,9.52-.75-.21-1.49-.41-2.59-.71,3.12,6.85,7.8,11.77,14.02,15.32-5.75-2.03-9.73-6.16-13.32-10.92-1.93-2.53-4.35-4.68-6.59-6.96-1.48-1.5-2.94-3.04-4.59-4.35-1.49-1.18-3.14-2.21-4.84-3.06-2.52-1.28-5.15-2.35-7.99-3.62-.49.99-1.12,2.28-1.76,3.56,1.33-4.82,1.97-9.33-4.72-11.15-.34,4.81,1.03,9.07,3,13.11,1.33,2.73,3.16,5.2,4.78,7.78,1.8,2.88,4.1,4.46,7.83,2.55-.11-1.49-.25-3.19-.39-4.91.18-.05.35-.1.53-.16.37,1.59.76,3.18,1.24,5.17,3.69-1.63,7.23-1.96,9.08,3.12-.75-.55-1.32-.98-2.02-1.5-.17.61-.31,1.18-.46,1.73-.09,0-.19,0-.29-.01-.01-.19.01-.39-.04-.57-.24-.92-.23-2.26-.82-2.61-.61-.37-1.83.11-2.75.36-2.11.56-4.21,1.21-6.58,1.89.7.48,1.23,1,1.85,1.26,3.92,1.58,6.85,4.19,9.05,7.83.56.93,2.23,1.31,3.47,1.64.98.26,2.08.05,3.17.59-1.5.21-2.99.41-4.51.6-.02.11-.12.4-.09.42,3.4,1.83,5.61,4.54,6.44,8.39.18.81.93,1.72,1.66,2.15,2.66,1.56,4.2,3.64,3.57,7.12.26-4.03-2.98-5.07-5.53-7.08-.55,4.03-1.22,7.89-1.49,11.77-.05.82,1.2,2.2,2.13,2.54,4.06,1.5,5.75,4.77,6.98,8.48.08.25.05.54.07.85-.75-.88-1.49-1.74-2.43-2.84.89-1.83-.75-3.85-5.8-5.79-.34,1.7-.68,3.35-1.02,5.05-.51.07-1.23.18-2.32.33,3.28-2.65,2.37-5.55.98-8.64-.94.54-1.85,1.06-2.76,1.58,4.14-2.74,3.86-7.24,3.94-11.55.04-1.57-.07-3.14-.21-4.7-.22-2.28-1.28-3.81-3.44-4.94-1.53-.8-2.68-2.4-3.85-3.79-1.04-1.24-1.84-2.67-3.28-4.8-3.19,7.04-2.91,14-4.63,20.49.86-7.04-.15-14.37,3.25-21.2-3.44-2.05-7.06-4.19-11.27-6.7.37,1.56.62,2.86,1,4.12.37,1.22.87,2.39.88,3.79-.85-1.81-.65-4.46-3.78-3.6.28-1.42.37-2.99.92-4.38.77-1.99-.88-2.78-1.6-4.04-2.48-4.3-4.95-8.58-7.34-12.72-1.81,2.08-1.65,6.45.5,9.11.44.53.08,1.65.2,2.49.15,1.07.41,2.12.27,3.27-.98-2.54-2.21-5.02-2.89-7.63-.8-3.07-.84-6.21.86-9.14,1.69-2.88.54-8.25-2.1-10.27-1.17-.89-2.3-1.81-4-3.14-.1,1.47-.18,2.42-.26,3.55-.41.09-1.47.32-2.64.59,1.35,1.85,2.42,3.26,3.39,4.73.1.15-.38.69-.33.6-.9-1.05-1.57-2.39-2.65-3-1.74-.97-1.94-1.81-.69-3.26,2.58-3,2.56-3.71.27-6.82-1.13-1.54-2.11-3.19-2.75-4.16-.98,6.07-2.12,12.6-3.06,19.17-.55,3.95,1.4,5.8,5.59,5.75.51,0,1.02.31,2.31.74-1.44.16-2.11.23-2.74.3,1.68,2.42,3.28,4.77,4.89,7.1-.18.12-.35.24-.52.36-1-1.38-1.99-2.76-3.12-4.33-.52.87-.86,1.47-1.22,2.07.83-2.85-.81-4.01-3.6-5.02,1.65,6.04,3.65,11.44,7.41,16.11,3.73,4.63,7.95,8.37,14.63,8.6-.57.65-.91,1.01-.95,1.05-2.23-.66-4.39-1.29-6.86-2.01,1.69,2.77,3.22,5.31,4.76,7.84-.16.1-.3.21-.45.31-.54-.63-1.09-1.27-1.74-2.03-.39.46-.76.91-1.12,1.34-.1-.2-.3-.44-.26-.51,1.05-1.43.56-2.62-.49-3.8-2.04-2.27-4.02-4.58-6.05-6.86-2.5-2.81-5.02-5.59-7.45-8.3-1.54,4.05-.59,6.61,3.19,8.7,2.45,1.35,1.75,3.21.88,4.61-.33-1.07-.4-3.09-1.28-3.56-1.19-.63-2.89-2.27-4.32-.66-.77-7.03,1.39-14.71-3.76-21.34-2.56,6.88-3.81,14.02-3.4,21.41.04.83.78,1.63,1.2,2.45,2.68,5.36,5.06,10.91,8.18,15.99,1.95,3.17,3.59,7.14,8.14,7.94.84.15,1.77.72,2.35,1.37,2.04,2.29,4.61,3.03,7.58,2.84l-.09.72c-1.78-.16-3.7.05-5.31-.56-1.79-.69-3.29-2.12-5.18-2.9,1.54,3.11,3.75,5.61,6.85,7.01,3.23,1.45,5.9,3.34,7.72,6.43.34.58,1.14.9,1.23.96.16,1.4.29,2.65.43,3.86-1.47-1.78-3.28-3.42-4.06-5.47-1.32-3.5-4.44-3.26-6.69-4.76-.26.15-.51.29-.77.45.28,2.35.57,4.71.86,7.08-.26,0-.53.01-.79.01-.23-2.26-.43-4.53-.7-6.77-.07-.6-.24-1.32-.62-1.74-3.23-3.55-6.52-7.03-9.81-10.52-.17-.18-.46-.25-.7-.36-1.7,4.71-1.12,7.45,2.08,9.99-1.78.75-1.6,4.01.44,8.05-.6-.28-1.22-.57-1.99-.95-.49-2.86-1.08-6.34-1.68-9.81-.45-.02-.89-.05-1.34-.07-1.13,5.5-2.32,11.01-3.32,16.53-.11.61.67,1.66,1.31,2.08,2.75,1.79,5.61,3.42,8.26,5.56-1.09-.43-2.2-.84-4.15-1.6,1.57,3.77,2.91,6.94,4.46,10.66-1.31-1.85-2.82-3.25-3.4-4.95-1.81-5.28-2.75-6.83-6.33-8.35.91,9.09,3.06,18.02.18,26.98,3.02-12.27-3.44-23.96-1.82-36.47-1.72,1.5-3.41,2.67-4.66,4.21-.59.73-.6,2.19-.42,3.24.44,2.53,1.17,5.02,1.72,7.52.07.36-.18.79-.32,1.38-.98-3.26-2.09-6.22-2.66-9.28-.23-1.29.24-3.4,1.18-4.11,7.43-5.65,8.62-13.99,9.33-22.24.26-3.11-1.76-6.41-2.79-9.77-1.56.52-2.6.67-3.39,1.19-.69.46-1.68,1.5-1.53,2.01,1.11,4.08-.98,7.85-1.27,11.8,0-4.21-.1-8.42.07-12.62.04-.85.99-1.82,1.76-2.45.72-.59,1.75-.8,3.01-1.33-1.68-2.61-3.13-4.9-4.98-7.79-2.44,3.7-4.66,6.92-6.67,10.27-.36.6-.04,1.79.24,2.6.88,2.52,2.23,4.93,2.76,7.51.3,1.47-.12,3.7-1.11,4.69-2.11,2.09-2.97,4.32-2.81,7.18.12,2.28.02,4.57-.55,6.86,0-3.51-.18-7.02.09-10.51.09-1.21,1.1-2.53,2.03-3.45,1.61-1.62,1.88-3.32,1-5.29-.94-2.09-1.94-4.16-3.7-6.42-1.61,5.19-3.22,10.38-4.83,15.58-.17-.05-.34-.1-.51-.16.63-3.09,1.1-6.23,1.96-9.25.89-3.18,1.99-6.34,3.31-9.37,1.32-3.02,3.04-5.87,4.59-8.79-.19-.21-.37-.43-.56-.63-1.88,1.61-3.76,3.24-5.47,4.72-.12-.17-.58-.82-.89-1.27.73-.5,1.59-1.09,2.46-1.68,1.29-.88,2.48-2.17,3.9-2.54,2.84-.75,3.53-2.34,3.36-5.07-.5-8.14,1.07-15.97,3.51-23.71,1.26-4,2.09-8.13,3.17-12.48q-4.87.79-5.04,6.17c-.55-1.08-1.1-2.14-1.64-3.22-.29-.12-.59-.25-.88-.37,1.64-1.24,3.22-2.55,4.93-3.67,1.7-1.11,2.74-2.42,2.47-4.56-.2-1.56-.32-3.12-.54-5.29-1.2,1.98-1.93,3.65-3.07,4.96-2.19,2.5-4.29,5.27-7,7.02-3.67,2.37-3.52,5.67-2.98,8.93.34,2.04.84,4.25,2.98,5.93,1.43,1.13,1.56,3.9,1.76,6.15-.87-1.83-1.75-3.67-2.62-5.52-.34.09-.69.18-1.02.27.36,2.93-.02,6.29,1.29,8.71,1.77,3.29.89,5.21-1.34,7.37-.52.5-.86,1.18-1.29,1.78-.2-.17-.4-.32-.59-.49.19-.28.34-.6.56-.85,2.17-2.37,3.82-4.72,1.08-7.89-.76-.88-.85-2.34-1.47-4.2-.6,1.79-1.02,3.02-1.63,4.84-.4-4.27,3.62-7.42.84-11.55-.61,1.42-1.15,2.78-1.81,4.09-.78,1.56-1.49,3.22-2.53,4.6-1.76,2.33-1.77,4.8-.97,7.37.56,1.78.87,2.73.63,3.48-.1-.11-.21-.21-.31-.31-.81-1.84-1.62-3.67-2.72-6.12-1.23,1.91-2.58,3.58-3.43,5.46-1.24,2.77-1.83,5.82-4.64,7.67-.48.32-.83,1.65-.57,2.17,1.36,2.6,2.94,5.1,4.47,7.66-.11.14-.66.76-.79.93-1.11-1.9-2.44-4.17-3.81-6.52-1.65,1.28-3.03,2.34-4.41,3.41,1.94-2.06,3.99-3.8,3.42-7.09-.09-.54.96-1.24,1.38-1.93,1.13-1.78,2.23-3.59,3.08-5.52-5.7,1.59-10.05,4.53-12.64,9.77-.6,1.22-1.95,2.23-3.17,2.96-3.01,1.79-5.36,7.41-3.58,10.26,1,1.6,3.22,2.45,4.69,3.5-2.6,1.43.53,3.39-.17,5.07-2.25-1.64-.67-5.82-4.55-6.84.37,6.2.97,11.89,5.84,16.11-.23.17-.46.33-.7.5-1.65-2.14-3.32-4.3-5.13-6.63-2.37.35-2.73,2.3-2.71,4.57-.11-.89-.23-1.8-.47-3.6-2.05,2.14-3.64,3.8-5.17,5.4.18-.81.41-1.84.72-3.27,1.6-.9,3.89-2.03,5.99-3.43.69-.47,1.32-1.7,1.25-2.51-.4-4.29-1.03-8.55-1.58-12.86-1.3.78-2.59,1.55-3.31,1.98,1.42-2.11,3-4.64,4.79-7,.8-1.05,2.08-1.74,3.07-2.67,1.26-1.18,2.45-2.44,3.66-3.66-.22-.24-.44-.48-.65-.72-1.23.68-2.46,1.35-3.68,2.03-.07-.09-.15-.2-.21-.3,4.59-3.42,9.19-6.84,14.24-10.59-1.79-.35-3.42-.69-5.06-1.01.04-.24.08-.48.12-.72,1.62.3,3.24.68,4.87.86.81.09,1.96.19,2.46-.27,7.29-6.7,11.62-14.86,12.19-25.06-4.68.37-5.47,4.06-6.85,7.15-.97,2.19-1.75,4.46-2.76,6.63-.89,1.9-3.6,3.1-5.11,2.46,3.29-.9,4.95-3.09,5.44-7.08-5.81,1.07-10.46,4.27-13.99,8.84-1.51,1.95-1.86,4.73-2.96,7.03-.87,1.82-2.07,3.48-3.53,5.86.19-4.6,4.76-7.1,3.8-11.69-3.69,4.73-7.39,9.47-10.89,13.96-.04-.15-.1-.41-.19-.74-3.41,2.42-6.6,5.39-11.04,2.96,5.12,1.29,8.47-1.65,12.24-5.66-1.99.39-3.27.63-4.54.88-.17-.25-.33-.51-.49-.76,7.34.78,8.54-5.18,11.27-9.11-.73-.92-1.39-1.75-2.13-2.7-1.2.88-2.33,1.73-3.45,2.57-.1-.14-.21-.28-.31-.42,1.22-1.02,2.43-2.04,3.93-3.29,2.19,3.56,4.27,2.11,6.4-.01,2.32-2.3,4.72-4.51,7.1-6.75-.22-.33-.45-.67-.68-1-2.35,1.02-4.7,2.03-6.84,2.94,1.7-3.21,5.08-3.81,8.51-3.76,4.94.09,8.32-2.44,9.29-7.72-2.39.32-4.7.63-7,.94-.08-.26-.16-.53-.23-.79,1.61-.37,3.29-.6,4.84-1.15,3.18-1.11,6.51-2.05,9.42-3.69,5.66-3.2,10.11-7.68,12.94-14.66-1.66,1.04-2.68,1.68-3.69,2.32-4.18,2.65-8.61,4.38-13.65,4.95-2.23.25-4.19,2.54-6.34,3.82-1.12.67-2.36,1.15-3.64,1.77,2.15-1.92,4.13-3.68,6.19-5.53-4.27-2.29-9.44-1.22-12.37,2.36-2.86,3.47-3.18,4.36-4.22,11.89-.43-1.3-.74-2.24-1.05-3.17-.22-.02-.44-.05-.66-.07-.43.96-.92,1.88-1.29,2.86-2.37,6.22-5.74,11.75-10.82,16.18-2.06,1.81-2.75,4.22-2.23,7.06-.23-.5-.45-1-.71-1.57-1.42,1.04-2.68,1.99-3.94,2.92-.18-.2-.34-.4-.51-.59.76-.45,1.53-.91,2.29-1.35-.09-.2-.2-.4-.29-.59-.92-.17-1.83-.33-2.74-.5,2.37.01,4.71.05,4.93-3.32-7.51,1.84-11.99,6.94-14.77,13.68-1.02,2.49-1.54,5.27-1.77,7.95-.1,1.2,1.08,2.5,1.69,3.75.45.95.89,1.88.95,3.02-.51-.72-1.03-1.43-1.54-2.14-.29.08-.59.18-.89.26.99,4.06,1.97,8.11,3.07,12.61-1.3-2.85-2.4-5.27-3.53-7.74-2.33,1.64-4.69,3.3-6.89,4.84-.11-1.22-.01-2.54,2.45-3.06,3.01-.62,4.63-3.32,3.85-6.23-1.78-6.58-.63-12.6,3.31-18.46-3.77-.23-4.67,2.81-6.65,4.35,1.28-2.57,2.57-5.1,5.95-5.53.65-.07,1.48-.48,1.8-.99,2.56-4.03,6.46-6.27,10.63-8.15,3.37-1.51,6.17-3.61,8.36-7.57-2.4.37-4.31.63-6.19,1.02-.32.06-.74.62-.77.98-.25,3.93-3.32,3.75-6.55,4.52,2.13-1.68,5.48-1.01,5.38-5.01-6.58,3.1-13.6,4.64-17.34,11.43-.3.55-1.19.92-1.87,1.08-4.36,1.06-7.59,3.18-8.13,8.11-.04.37-.79.68-1.52.72,1.03-2.25,2.07-4.48,3.28-7.11-1.59.14-3.03.26-4.47.39-.01-.07-.02-.16-.03-.23,3.09-.79,6.21-1.46,9.24-2.42,1.25-.4,2.84-1.19,3.33-2.24,1.89-4.04,5.59-5.76,9.09-7.77,1.09-.63,2.23-1.22,3.53-1.93-2.68-2.06-5.35-1.76-8.1-.63,2.71-1.93,4.48-1.98,7.64-.98,1.26.4,2.79.32,4.11.06,2.34-.47,4.64-1.86,6.91-1.77,4.93.21,5.79-3.18,7.35-7.4-2.39,1.04-4.1,1.78-5.82,2.53-.65-2.14,2.13-2.5,3.41-2.64,2.06-.25,2.78-1.26,3.53-2.83.83-1.74,1.92-3.35,3.16-5.45-3.91,1.05-7.55,1.77-10.96,3.09-1.25.49-2.62,2.36-2.74,3.7-.22,2.67-1.61,3.43-4.13,3.82,1.3-.92,2.35-1.65,3.4-2.4-.27-.14-.53-.26-.8-.4-2.96,0-5.92.1-8.88-.04-2.49-.11-4.45.6-6.22,2.39-1.68,1.72-3.69,3.09-5.41,4.76-1.17,1.12-2.08,2.5-3.08,3.74-.03-.09-.18-.49-.4-1.07-3.33,2.57-7.88,3.91-9,8.52.12-.83.24-1.66.36-2.53-11.39,5.24-9.59,4.35-14.06,3.62,2.47-.58,6-.95,9.15-2.27,3.15-1.34,5.9-3.64,8.96-5.6-3.44-2.55-6.48-.11-9.53.12,3.22-1.64,6.43-3.06,10.03-1.52.41.18,1.17.03,1.52-.26,3.84-3.19,7.64-6.44,11.77-9.95-4.92-2.9-9.22-5.66-14.81-4.91-4.1.55-5.42,1.59-7.02,5.64.16-.69.22-1.4.49-2.03.39-.88.94-1.7,1.66-2.98-4.38.46-8.19.85-12.15,1.27,1.94-.56,3.25-1.88,5.63-1.57,2.84.36,5.94-.2,8.75-1,5.96-1.7,11.03.3,16.17,2.86,1.44.72,3.27.66,4.92.84.81.09,1.71-.27,2.48-.08,4.78,1.15,8.37-.29,10.74-5.03-4-2.06-7.85.81-12.12.89,1.11-.52,1.87-.88,2.86-1.35-1.01-1.13-1.84-2.07-2.68-3.02.05-.05.1-.1.15-.16,1.28.89,2.46,2.05,3.86,2.63,1.73.71,2.86-.39,3.62-1.95,4.24,2.27,8.62,2.21,13.29.53,4.45-1.59,8.74-3.29,11.99-7.14-3.66-.55-7.18-1.63-10.77,1.27-1.79,1.45-4.63,1.59-7,2.32-.08-.23-.17-.47-.25-.7,2.24-.85,4.47-1.71,6.71-2.56-.07-.28-.14-.56-.21-.84-1.76.14-3.55.52-5.29.36-5.12-.46-10.22-1.11-15.33-1.73-2.81-.33-5.61-1.08-7.36,2.38-.63,1.27-2.09,2.14-3.26,3.16-.06-.56-.11-1.17-.19-1.84-2.24-.17-4.51-.34-6.76-.51,3.16-1.48,7.09.81,9.55-2.8-5.91.23-11.92-.38-17.15,3.56-3.05,2.3-6.58,3.04-10.48,1.97-1.5-.42-3.25.11-4.88.14-.67.01-1.34-.16-2.01-.27-1.81-.29-3.62-.59-5.82-.96.69-.1,1.05-.23,1.39-.21,4.55.29,9.11.93,13.63.79,2.59-.07,5.35-.07,7.4-3.15,1.2-1.78,4.79-2.13,7.39-2.73,3.13-.72,6.36-1.01,9.66-1.5-3.06-3.87-6.02-1.56-8.92-.22,1.32-1.04,2.64-2.09,4.61-3.66-4.53-.45-8.5-.85-12.47-1.25.01-.18.01-.35.02-.54,1.32.08,2.63.19,3.95.24,1.37.06,2.76-.04,4.11.15,1.75.24,3.73.28,5.16,1.13,3.87,2.33,7.88,3.43,12.37,4.2,8.27,1.4,16.34.57,24.54.14,4.5-.24,9.17.77,13.58,1.94,5.28,1.39,10.31,2.06,15.33-.57.54-.28,1.02-.66,1.52-1.31-5.15,1.29-9.66-.02-13.96-2.67-.88-.54-2.24-.3-4.26-.52,2-.42,3.26-.68,4.38-.92-1.49-2.08-4.46-3.29-7.33-2.7-1.08.22-2.17.51-3.17.96-3.43,1.55-6.63,2.76-10.38.25-.31-.21-.66-.36-1.02-.5,1.28.3,2.56.58,3.84.84.92.19,2,.24,2.87-.07,1.8-.62,3.51-1.54,5.25-2.98-2.21-.41-4.4-.8-6.6-1.21.02-.19.05-.38.08-.58,2.55.36,5.11.72,7.66,1.08.89.12,1.79.4,2.68.38,3.77-.07,6.71,1.44,9.32,4.12,1.04,1.06,2.78,1.99,4.21,2.02,2.74.06,5.57-.26,8.18-1.03,1.11-.32,2.17-2.07,2.52-3.37.12-.47.18-.95.21-1.45.02-.51.01-1.04-.02-1.58.54-.75,1.03-1.55,1.46-2.41h19.4c.61.99,1.35,1.91,2.24,2.77v2.58c-.02,2.07.95,3.34,3,3.67,2.19.35,4.38.74,6.58.93,2.19.2,4.08-.23,5.63-2.19,2.27-2.85,9.45-4.41,12.85-3.08.78.3,1.54.63,2.28,1.01,2.58,1.33,5.12,2.74,7.94.44.41-.33,1.21-.18,1.71-.23-3.56,3.48-7.36,2.49-11.3.59-2.48-1.19-4.96-1.81-7.44.48-.96.88-2.61,1.01-3.94,1.49-.05.25-.09.51-.15.77,1.68.91,3.36,1.82,4.94,2.67.11-.08-.04.1-.1.07-4.09-1.83-7.94-.11-11.89.66-1.74.33-3.63-.19-5.46-.31-.09.23-.19.47-.29.71,2.38.8,4.72,2.02,7.17,2.3,2.5.28,5.3.18,7.63-.69,7.07-2.58,14.22-2.91,21.58-2.04,1.65.19,3.39-.26,5.09-.45,2.27-.25,4.53-.52,6.87-.22-1.56.3-3.13.6-4.69.91.02.18.04.35.07.53,1.99-.19,3.98-.35,5.96-.56,2.65-.29,5.34-1.06,7.94-.84,3.88.34,7.12-.88,10.09-3.01,2.02-1.44,3.98-2.1,6.46-1.53,1.2.28,2.55-.12,3.83-.16,1.66-.03,3.33-.01,5.54-.01-6.22,1.97-12.94-.88-17.78,5.03,1.64.28,3.23.46,4.73.85,2.75.71,5.43,1.61,8.18,2.32,1.03.26,2.15.19,3.22.27-.18.2-.55.6-1.13,1.23,2.56,1.85,5.21,2.87,8.4,2.39,2.16-.32,4.42-1.43,6.44.44-2.25.2-4.52.7-6.73.49-2.67-.24-5.85-.36-7.85-1.84-5.53-4.08-11.73-3.87-18.53-4.36,2.24,4.19,6.39,1.19,9.12,3.45h-5.75c-.1,1.12-.2,2.02-.23,2.35-.67-.74-1.55-1.75-2.47-2.74-.19-.2-.55-.27-.66-.49-2.02-4.28-5.8-3.19-8.84-2.33-6.48,1.85-12.96,1.72-19.51,1.05-.79-.08-1.61-.01-2.41-.01-.04.24-.08.49-.12.74,2.96.57,5.92,1.14,9.61,1.85-3.42.49-6.22-.4-9.15.6-3.09-3.58-4.58-4.03-9.21-2.41,11.56,9.61,20.63,9.34,25.13,6.22,1.7,3.14,2.88,3.04,7.99-.63-.87,1-1.76,2-2.85,3.24.9.47,1.68.89,2.57,1.37-4.06.01-7.84-2.93-11.97-.83,2.32,4.22,5.53,6.27,10.31,5,.27-.07.58-.12.83-.05,4.46,1.49,7.95-1.12,11.62-2.83.77-.35,1.45-1.07,1.95-1.77,2.04-2.85,4.25-3.32,7.47-1.34-2.48-.49-4.87-1.13-6.17,1.45,7.02.81,14.04,1.61,21.04,2.42-.02.23-.05.47-.07.7-3.28-.25-6.56-.5-10.12-.77.45,1.08.78,1.88,1.11,2.69-1.46-2.66-3.84-3.58-6.66-3.43-2.6.12-5.19.49-7.78.75-.01.34-.02.68-.03,1.01,1.61.43,3.23.85,5.21,1.37-3.94.49-7.96-2.03-11.06,1.53,1.9,3.32,2.26,3.31,5.89,2.54,2.28-.49,4.69-.34,6.83-.47.45.9.84,1.68,1.26,2.52-3.08-2.17-6.23-1.83-10.26-.33,2.89,2.31,5.27,4.24,7.69,6.13.23.18.75.24,1.02.11,4.44-2.08,8.17.74,12.15,1.93-3.73.14-7.25-3.49-11.37-.7,5.87,4.14,11.27,8.87,19.15,7.48Z"/>
    <g>
      <path class="st0" d="M200.25,259.88c-18.73-46.12,3.5-72.5,42.98-86.12,11.81-4.06,22.29-4.19,29.56-9.5,11.43-8.33,26.79-27.62,35.74-30.32,12.91-3.9,8.55,7.12,8.55,7.12,0,0-16,24.54-18.16,27.06-2.18,2.51-11.96,10.88-14.87,11.67,2.98.17,10.39-4.82,16.97-10.59,1.98-1.74,3.45-4.63,5.27-7.37,7.87-11.88,14.57-18.43,15.23-24.62.69-6.2-5.62-6.48-5.62-6.48,0,0,4.25-10.57,3.82-30.23-.26-12.39,7.83-17.51,11.53-15.35,1.66.95,1.09,10.19,1.18,13.43.36,13.99,3.35,37.18-.35,46.68-4.68,12.05-14.41,40.86-29.81,53.26-42.74,34.38-74.99,10.17-102,61.38h0Z"/>
      <path class="st0" d="M199.75,259.88c18.74-46.12-3.49-72.5-42.98-86.12-11.79-4.06-22.27-4.19-29.55-9.5-11.43-8.33-26.78-27.62-35.73-30.32-12.9-3.9-8.55,7.12-8.55,7.12,0,0,15.99,24.54,18.17,27.06,2.18,2.51,11.96,10.88,14.87,11.67-2.97.17-10.39-4.82-16.97-10.59-1.97-1.74-3.46-4.63-5.26-7.37-7.88-11.88-14.56-18.43-15.25-24.62-.66-6.2,5.63-6.48,5.63-6.48,0,0-4.26-10.57-3.82-30.23.27-12.39-7.82-17.51-11.54-15.35-1.66.95-1.08,10.19-1.17,13.43-.36,13.99-3.33,37.18.36,46.68,4.68,12.05,14.41,40.86,29.81,53.26,42.75,34.38,74.99,10.17,102,61.38h0Z"/>
    </g>
  </g>
  <g>
    <g>
      <path class="st2" d="M252.96,126.12s2.36-5.33,8.76-5.73c5.51-.34,10.06,3.92,16.04,1.93,0,0-12.38,15.07-23.82,4.95,0,0,6.75-3.92,13.16-2.35,0,0-6.7-2.86-14.12,1.19Z"/>
      <path class="st2" d="M239.93,132.39s5.45-2.07,10.23,2.2c4.12,3.68,4.28,9.91,9.9,12.76,0,0-19.42,1.79-20.27-13.47,0,0,7.54,2.05,10.92,7.71,0,0-2.68-6.77-10.78-9.21Z"/>
      <path class="st2" d="M245.39,110.13s2.56,4.62,8.36,4.47c5-.13,8.76-4.34,14.31-3.03,0,0-12.37-12.6-21.89-2.56,0,0,6.41,3,12.06,1.06,0,0-5.81,3.11-12.84.05Z"/>
      <path class="st2" d="M233.72,114.77s-.15,3.77,3.45,5.83c3.1,1.78,6.96.6,9.87,3.46,0,0-2.88-12.29-12.43-9.69,0,0,2.8,4.21,6.97,5.13,0,0-4.71-.26-7.87-4.73Z"/>
      <path class="st2" d="M220.48,131.12s-.15,3.77,3.45,5.83c3.1,1.78,6.96.6,9.87,3.46,0,0-2.88-12.29-12.43-9.69,0,0,2.8,4.21,6.97,5.13,0,0-4.71-.26-7.87-4.73Z"/>
      <path class="st2" d="M233.92,109.77s-2.05-4.87,1.65-9.33c3.19-3.85,8.83-4.2,11.22-9.38,0,0,2.26,17.51-11.52,18.79,0,0,1.6-6.89,6.61-10.14,0,0-6.04,2.65-7.98,10.06Z"/>
      <path class="st2" d="M219.39,116.12s-2.71-2.73-1.41-6.75c1.12-3.47,4.82-5.23,5.04-9.38,0,0,6.27,11.22-2.69,15.82,0,0-.78-5.09,1.72-8.64,0,0-3.37,3.43-2.66,8.96Z"/>
      <path class="st2" d="M204.09,110.44s-.77-3.77,2.51-6.43c2.83-2.29,6.9-1.74,9.35-5.1,0,0-.88,12.83-10.9,11.78,0,0,2.12-4.69,6.16-6.3,0,0-4.69,1.03-7.13,6.05Z"/>
      <path class="st2" d="M251.78,98.52s-.62-3.8,2.78-6.32c2.92-2.17,6.97-1.45,9.55-4.7,0,0-1.41,12.78-11.38,11.31,0,0,2.32-4.6,6.42-6.03,0,0-4.73.83-7.37,5.74Z"/>
      <path class="st2" d="M163.52,131.94s-2.96-2.45-6.85-.81c-3.35,1.42-4.78,5.27-8.9,5.85,0,0,11.73,5.26,15.52-4.08,0,0-5.14-.33-8.45,2.48,0,0,3.11-3.66,8.69-3.45Z"/>
      <path class="st2" d="M204.87,57.21s-5.55-1.87-6.53-8.23c-.85-5.48,3-10.42.46-16.21,0,0,16.2,11,7.14,23.37,0,0-4.54-6.39-3.55-12.94,0,0-2.24,6.96,2.49,14.02Z"/>
      <path class="st2" d="M212.23,71.83s-3.52-4.68-.72-10.49c2.4-5,8.37-6.89,9.56-13.1,0,0,7.13,18.24-7.35,23.31,0,0-.12-7.84,4.4-12.68,0,0-5.79,4.47-5.88,12.96Z"/>
      <path class="st2" d="M204.42,78.35s3.09-4.98-.21-10.51c-2.84-4.77-8.95-6.12-10.68-12.21,0,0-5.49,18.8,9.38,22.57,0,0-.57-7.82-5.5-12.24,0,0,6.16,3.94,7.01,12.39Z"/>
      <path class="st2" d="M184.15,77.4s-2.53-5.28-8.96-5.49c-5.54-.18-9.98,4.24-16.04,2.42,0,0,12.88,14.75,24.07,4.25,0,0-6.9-3.73-13.28-1.96,0,0,6.64-3.07,14.21.77Z"/>
      <path class="st2" d="M190.65,90.38s-2.08-4.33-7.35-4.5c-4.55-.14-8.18,3.48-13.15,1.99,0,0,10.56,12.1,19.73,3.49,0,0-5.66-3.06-10.89-1.61,0,0,5.44-2.52,11.66.63Z"/>
      <path class="st2" d="M208.43,94.53s-.44-4.78,4.01-7.63c3.83-2.45,8.81-1.21,12.31-5.04,0,0-2.87,15.8-15.16,13.11,0,0,3.29-5.53,8.52-6.96,0,0-5.97.63-9.68,6.52Z"/>
      <path class="st2" d="M159.74,109.48s-4.78-.49-6.72-5.4c-1.67-4.23.51-8.87-2.57-13.05,0,0,14.95,5.85,9.95,17.4,0,0-4.79-4.29-5.19-9.7,0,0-.53,5.97,4.53,10.76Z"/>
      <path class="st2" d="M173.24,115.27s-4.04-.41-5.69-4.57c-1.42-3.58.43-7.51-2.18-11.04,0,0,12.65,4.95,8.42,14.72,0,0-4.06-3.63-4.39-8.21,0,0-.45,5.06,3.84,9.1Z"/>
      <path class="st2" d="M149.26,125.75s-2.95-3.79-8.14-2.83c-4.47.82-7.26,5.14-12.43,4.74,0,0,12.89,9.58,20.03-.79,0,0-6.18-1.79-10.98.74,0,0,4.78-3.62,11.52-1.86Z"/>
      <path class="st2" d="M177.7,67.97s-6.43,1.07-10.73-4.66c-3.71-4.94-2.52-11.8-8.05-16.16,0,0,21.68,2.3,19.27,19.2,0,0-7.81-3.89-10.28-10.84,0,0,1.45,8.01,9.79,12.46Z"/>
      <path class="st2" d="M145.67,110.11s-4.17,3.22-9.43.78c-4.53-2.1-6.3-7.45-11.91-8.45,0,0,16.33-6.63,21.06,6.34,0,0-7.05.21-11.46-3.81,0,0,4.09,5.16,11.74,5.14Z"/>
      <path class="st2" d="M147.62,120.41s1.25-1.96-.03-4.18c-1.1-1.91-3.52-2.48-4.18-4.91,0,0-2.28,7.44,3.61,9.01,0,0-.19-3.11-2.12-4.89,0,0,2.43,1.6,2.72,4.96Z"/>
      <path class="st2" d="M155.71,124.85s-2.77-.94-3.26-4.12c-.42-2.74,1.51-5.2.25-8.11,0,0,8.09,5.52,3.54,11.69,0,0-2.26-3.2-1.76-6.47,0,0-1.13,3.48,1.23,7.01Z"/>
    </g>
    <path class="st1" d="M228.59,125.99c-5.82-.99-10.63.69-13.27,1.98,5.87-8.42,14.86-15.43,28.57-18.18,0,0-40.71,1.99-44.11,51.72-.96-4.3-2.77-19.49-2.28-28.41.73-13.16,5.87-24.8,8.49-37.44,2.61-12.54,4.05-25.3.21-37.75,2.29,13.55-.37,24.79-1.54,29.79-1.38,5.91-4.09,11.51-6.33,17.17-.25-10.15-3.27-27.26-19.55-36.62,0,0,11.89,7.57,15.39,26.64,1.56,8.49.89,17.22-1.73,25.44-.93,2.91-1.68,5.86-2.1,8.88-.28,1.95-.47,3.9-.61,5.86-6.52-10.29-19.75-24.75-42.86-25.3,0,0,17.45,1.85,31.37,16.58,0,0-14.97,7.04-30.88-5.66,0,0,11.08,14.73,33.51,8.73,5.36,6.89,8.47,15.31,8.97,24.09,0,.03,0,.06,0,.1.39,6.88,1.04,13.82,2.27,20.61l8.14-.36h.09s4.42-.2,4.42-.2c0,0-2.27-21.37,6.94-39.63,1.24-2.45,3.35-4.35,5.93-5.27,4.93-1.76,10.58-1.56,17.3.23,9.61,2.56,17.3-1.5,17.3-1.5-11.11,3.12-17.09-.39-23.64-1.5Z"/>
  </g>
</svg>