<?xml version="1.0" encoding="UTF-8"?>
<svg id="Layer_1" xmlns="http://www.w3.org/2000/svg" version="1.1" viewBox="0 0 154.7 100">
  <!-- Generator: Adobe Illustrator 29.3.1, SVG Export Plug-In . SVG Version: 2.1.0 Build 151)  -->
  <defs>
    <style>
      .st0, .st1 {
        fill: #fff;
      }

      .st1 {
        fill-rule: evenodd;
      }
    </style>
  </defs>
  <g>
    <g>
      <path class="st0" d="M79.1,70.2c-1.2.4-1.4.3-4-.8,0,.2,0,.4,0,.5-.4-.4-.8-.9-1.3-1.3-1.4-1-1.4-1-1.5-.9-.8-.7-1.5-1.5-2.4-2.1-.4-.3-1-.3-1.4-.2-1.1.2-2,0-2.7-1-.3-.3-.8-.5-1.3-.5.3.8.6,1.6,1,2.5.2,0,.6,0,1-.1-.9.7-1.4.5-1.6-.6-.2-1.1-1.3-2.2-2.2-2.3.5,1.1,1,2.3,1.5,3.4.1.3.5.5.8.6.4.1.9,0,1.3.2.9.3,1.8.6,2.8.2.3-.1.7,0,1,.1-.6,0-1.2.2-1.8.3v.2c.6.3,1.1.6,1.7.9.3.2.8.4,1,.7.3.4.7.6,1.2.5-.2,0-.5,0-.8.2.9,1.3,2.3,1,3.4,1.5-.4,0-.7,0-1.2-.1.3.6.5,1.1.8,1.6,0,0-.1,0-.2,0-.1-.3-.3-.5-.4-.8-.3-.6-.7-1-1.3-1.1-.7-.2-1.2-.6-1.6-1.2-.2-.4-.7-.7-1.2-1.1-.1.5-.2.8-.3,1.1.4-1.4-.8-1.6-1.6-1.9-.9-.4-1.9-.6-2.9-.8.3.9.9,1.4,1.7,1.8,1.2.6,2.5,1.1,3.2,2.4,0,0,.2.2.3.2,1.1,0,1.5,1,2,1.7,0,.1,0,.3,0,.6-.5-.8-.8-1.8-2-1.9,1.2,1.7,1.2,3.6.6,5.5.7,0,1.3.2,1.9.3,0,0,0,.1,0,.2h-1.9c-.3.6-.6,1.2-.8,1.9,0,0-.1,0-.2,0,.2-.4.4-.8.6-1.3.1-.5.2-1,.3-1.4-.6.2-1.2.3-1.8.5,0,0,0,0,0,0,.1,0,.3-.3.4-.3.9.3,1.2-.4,1.5-1,.5-.9.1-2.2-.7-3.1-.2-.2-.1-.5-.2-.8-.5-.9-1.1-1.6-2.1-2.1-.5-.2-1.1-.5-1.7-.8,0,.8.2,1.1.8,1.2-.2.3-.5.6-.9,1,0-.2,0-.3,0-.5,0-.2,0-.5,0-.6-.7-.5-.4-1.5-1.1-2.1-.6-.6-1.1-1.4-1.5-2.1-.5-.9-.9-1.9-1.4-2.8-.3-.6-.3-.5-.7,0-.2.2-.5.2-.9.5.3.2.4.2.5.3,0,0,0,0,0,.1-.2-.1-.3-.2-.5-.4.4-.5.7-1,1-1.5-1-1.9-2.5-1.8-4.3-1.3.2.7.9.6,1.5.8-.3,0-.6,0-1,.1-.1.8.6.6.9.9-.4,0-.8,0-1.1-.1-.3-.2-.4-.7-.6-1.1-.3.2-.6.3-1,.6.3-.4.5-.6.8-.9-.8-.3-1.5-.6-2.2-.9-.7-.3-1.4-.8-2.2-1.1.3.5.6,1.1,1,1.6,1.4,1.8,3.2,2.8,5.5,3.1.9.1,1,.3,1,1.4-.2-.4-.2-.9-.5-1.1-.3-.2-.8,0-1.2,0-.2,0-.4-.1-.7-.2.1.9.4,1.5,1.2,1.8.6.2,1.1.5,1.7.8.2,0,.4.2.6.1.7-.2,1.2.2,1.7.6-.5-.2-1-.3-1.5-.5,0,0,0,.2-.1.3.7,1.2,1.8,1.9,3.1,2.5-.2,0-.4-.1-.7-.2.8,1.8,2,3.1,3.7,4-1.5-.5-2.5-1.6-3.5-2.9-.5-.7-1.1-1.2-1.7-1.8-.4-.4-.8-.8-1.2-1.1-.4-.3-.8-.6-1.3-.8-.7-.3-1.3-.6-2.1-.9-.1.3-.3.6-.5.9.3-1.3.5-2.4-1.2-2.9,0,1.3.3,2.4.8,3.4.3.7.8,1.4,1.2,2,.5.8,1.1,1.2,2,.7,0-.4,0-.8,0-1.3,0,0,0,0,.1,0,0,.4.2.8.3,1.3,1-.4,1.9-.5,2.4.8-.2-.1-.3-.3-.5-.4,0,.2,0,.3-.1.4h0c0,0,0,0,0-.2,0-.2,0-.6-.2-.7-.2,0-.5,0-.7,0-.5.2-1.1.3-1.7.5.2.1.3.3.5.3,1,.4,1.8,1.1,2.4,2.1.2.2.6.3.9.4.3,0,.5,0,.8.2-.4,0-.8.1-1.2.2,0,0,0,0,0,.1.9.5,1.5,1.2,1.7,2.2,0,.2.2.4.4.6.7.4,1.1.9.9,1.9,0-1.1-.8-1.3-1.5-1.8-.1,1.1-.3,2.1-.4,3.1,0,.2.3.6.6.7,1.1.4,1.5,1.2,1.8,2.2,0,0,0,.1,0,.2-.2-.2-.4-.4-.6-.7.2-.5-.2-1-1.5-1.5,0,.4-.2.9-.3,1.3-.1,0-.3,0-.6,0,.9-.7.6-1.4.3-2.3-.2.1-.5.3-.7.4,1.1-.7,1-1.9,1-3,0-.4,0-.8,0-1.2,0-.6-.3-1-.9-1.3-.4-.2-.7-.6-1-1-.3-.3-.5-.7-.9-1.2-.8,1.8-.8,3.7-1.2,5.4.2-1.8,0-3.8.8-5.5-.9-.5-1.8-1.1-3-1.8,0,.4.2.8.3,1.1,0,.3.2.6.2,1-.2-.5-.2-1.2-1-.9,0-.4,0-.8.2-1.2.2-.5-.2-.7-.4-1.1-.7-1.1-1.3-2.2-1.9-3.3-.5.5-.4,1.7.1,2.4.1.1,0,.4,0,.7,0,.3.1.6,0,.8-.3-.7-.6-1.3-.8-2-.2-.8-.2-1.6.2-2.4.4-.8.1-2.2-.5-2.7-.3-.2-.6-.5-1-.8,0,.4,0,.6,0,.9-.1,0-.4,0-.7.2.3.5.6.8.9,1.2,0,0,0,.2,0,.2-.2-.3-.4-.6-.7-.8-.5-.2-.5-.5-.2-.8.7-.8.7-1,0-1.8-.3-.4-.5-.8-.7-1.1-.3,1.6-.6,3.3-.8,5-.1,1,.4,1.5,1.5,1.5.1,0,.3,0,.6.2-.4,0-.5,0-.7,0,.4.6.9,1.2,1.3,1.9,0,0,0,0-.1,0-.3-.4-.5-.7-.8-1.1-.1.2-.2.4-.3.5.2-.8-.2-1.1-.9-1.3.4,1.6,1,3,1.9,4.2,1,1.2,2.1,2.2,3.8,2.2-.2.2-.2.3-.2.3-.6-.2-1.2-.3-1.8-.5.4.7.8,1.4,1.2,2.1,0,0,0,0-.1,0-.1-.2-.3-.3-.5-.5,0,.1-.2.2-.3.3,0,0,0-.1,0-.1.3-.4.2-.7-.1-1-.5-.6-1-1.2-1.6-1.8-.7-.7-1.3-1.5-2-2.2-.4,1.1-.2,1.7.8,2.3.6.3.5.8.2,1.2,0-.3,0-.8-.3-.9-.3-.2-.8-.6-1.1-.2-.2-1.8.4-3.8-1-5.6-.7,1.8-1,3.7-.9,5.6,0,.2.2.4.3.6.7,1.4,1.3,2.8,2.1,4.2.5.8.9,1.9,2.1,2.1.2,0,.5.2.6.4.5.6,1.2.8,2,.7v.2c-.5,0-1,0-1.4-.2-.5-.2-.9-.6-1.4-.8.4.8,1,1.5,1.8,1.8.8.4,1.5.9,2,1.7,0,.2.3.2.3.2,0,.4,0,.7.1,1-.4-.5-.9-.9-1.1-1.4-.3-.9-1.2-.8-1.8-1.2,0,0-.1,0-.2.1,0,.6.2,1.2.2,1.8h-.2c0-.6-.1-1.2-.2-1.8,0-.2,0-.3-.2-.4-.8-.9-1.7-1.8-2.6-2.8,0,0-.1,0-.2,0-.4,1.2-.3,1.9.5,2.6-.5.2-.4,1.1.1,2.1-.2,0-.3-.2-.5-.2-.1-.8-.3-1.7-.4-2.6-.1,0-.2,0-.3,0-.3,1.4-.6,2.9-.9,4.3,0,.2.2.4.3.5.7.5,1.5.9,2.2,1.4-.3-.1-.6-.2-1.1-.4.4,1,.8,1.8,1.2,2.8-.3-.5-.7-.8-.9-1.3-.5-1.4-.7-1.8-1.7-2.2.2,2.4.8,4.7,0,7.1.8-3.2-.9-6.3-.5-9.5-.5.4-.9.7-1.2,1.1-.2.2-.2.6-.1.8.1.7.3,1.3.5,2,0,0,0,.2,0,.4-.3-.8-.5-1.6-.7-2.4,0-.3,0-.9.3-1.1,1.9-1.5,2.2-3.7,2.4-5.8,0-.8-.5-1.7-.7-2.6-.4.1-.7.2-.9.3-.2.1-.4.4-.4.5.3,1.1-.3,2.1-.3,3.1,0-1.1,0-2.2,0-3.3,0-.2.3-.5.5-.6.2-.2.5-.2.8-.3-.4-.7-.8-1.3-1.3-2-.6,1-1.2,1.8-1.7,2.7,0,.2,0,.5,0,.7.2.7.6,1.3.7,2,0,.4,0,1-.3,1.2-.5.6-.8,1.1-.7,1.9,0,.6,0,1.2-.1,1.8,0-.9,0-1.8,0-2.8,0-.3.3-.7.5-.9.4-.4.5-.9.3-1.4-.2-.6-.5-1.1-1-1.7-.4,1.4-.8,2.7-1.3,4.1,0,0,0,0-.1,0,.2-.8.3-1.6.5-2.4.2-.8.5-1.7.9-2.4.3-.8.8-1.5,1.2-2.3,0,0,0-.1-.2-.2-.5.4-1,.8-1.4,1.2,0,0-.2-.2-.2-.3.2-.1.4-.3.6-.4.3-.2.7-.6,1-.7.7-.2.9-.6.9-1.3-.1-2.1.3-4.2.9-6.2.3-1.1.5-2.1.8-3.3-.8.1-1.3.7-1.3,1.6-.1-.3-.3-.6-.4-.8,0,0-.2,0-.2,0,.4-.3.8-.7,1.3-1,.4-.3.7-.6.7-1.2,0-.4,0-.8-.1-1.4-.3.5-.5,1-.8,1.3-.6.7-1.1,1.4-1.8,1.8-1,.6-.9,1.5-.8,2.3,0,.5.2,1.1.8,1.6.4.3.4,1,.5,1.6-.2-.5-.5-1-.7-1.4,0,0-.2,0-.3,0,0,.8,0,1.6.3,2.3.5.9.2,1.4-.3,1.9-.1.1-.2.3-.3.5,0,0,0,0-.2-.1,0,0,0-.2.2-.2.6-.6,1-1.2.3-2.1-.2-.2-.2-.6-.4-1.1-.2.5-.3.8-.4,1.3,0-1.1,1-1.9.2-3-.2.4-.3.7-.5,1.1-.2.4-.4.8-.7,1.2-.5.6-.5,1.2-.2,1.9.2.5.2.7.2.9,0,0,0,0,0,0-.2-.5-.4-1-.7-1.6-.3.5-.7.9-.9,1.4-.3.7-.5,1.5-1.2,2-.1,0-.2.4-.2.6.4.7.8,1.3,1.2,2,0,0-.2.2-.2.2-.3-.5-.6-1.1-1-1.7-.4.3-.8.6-1.2.9.5-.5,1-1,.9-1.8,0-.1.2-.3.4-.5.3-.5.6-.9.8-1.4-1.5.4-2.6,1.2-3.3,2.6-.2.3-.5.6-.8.8-.8.5-1.4,1.9-.9,2.7.3.4.8.6,1.2.9-.7.4.1.9,0,1.3-.6-.4-.2-1.5-1.2-1.8,0,1.6.2,3.1,1.5,4.2,0,0-.1,0-.2.1-.4-.6-.9-1.1-1.3-1.7-.6,0-.7.6-.7,1.2,0-.2,0-.5-.1-.9-.5.6-1,1-1.3,1.4,0-.2.1-.5.2-.8.4-.2,1-.5,1.6-.9.2-.1.3-.4.3-.7,0-1.1-.3-2.2-.4-3.4-.3.2-.7.4-.9.5.4-.6.8-1.2,1.2-1.8.2-.3.5-.4.8-.7.3-.3.6-.6,1-1,0,0-.1-.1-.2-.2-.3.2-.6.3-1,.5,0,0,0,0,0,0,1.2-.9,2.4-1.8,3.7-2.8-.5,0-.9-.2-1.3-.3,0,0,0-.1,0-.2.4,0,.8.2,1.3.2.2,0,.5,0,.6,0,1.9-1.8,3-3.9,3.2-6.6-1.2,0-1.4,1.1-1.8,1.9-.2.6-.5,1.2-.7,1.7-.2.5-.9.8-1.3.6.9-.2,1.3-.8,1.4-1.8-1.5.3-2.7,1.1-3.7,2.3-.4.5-.5,1.2-.8,1.8-.2.5-.5.9-.9,1.5,0-1.2,1.2-1.9,1-3.1-1,1.2-1.9,2.5-2.8,3.7,0,0,0-.1,0-.2-.9.6-1.7,1.4-2.9.8,1.3.3,2.2-.4,3.2-1.5-.5,0-.8.2-1.2.2,0,0,0-.1-.1-.2,1.9.2,2.2-1.4,3-2.4-.2-.2-.4-.5-.6-.7-.3.2-.6.4-.9.7,0,0,0,0,0-.1.3-.3.6-.5,1-.9.6.9,1.1.6,1.7,0,.6-.6,1.2-1.2,1.9-1.8,0,0-.1-.2-.2-.3-.6.3-1.2.5-1.8.8.4-.8,1.3-1,2.2-1,1.3,0,2.2-.6,2.4-2-.6,0-1.2.2-1.8.2v-.2c.4,0,.8-.2,1.2-.3.8-.3,1.7-.5,2.5-1,1.5-.8,2.7-2,3.4-3.8-.4.3-.7.4-1,.6-1.1.7-2.2,1.2-3.6,1.3-.6,0-1.1.7-1.7,1-.3.2-.6.3-1,.5.6-.5,1.1-1,1.6-1.5-1.1-.6-2.5-.3-3.2.6-.8.9-.8,1.1-1.1,3.1-.1-.3-.2-.6-.3-.8,0,0-.1,0-.2,0-.1.2-.2.5-.3.8-.6,1.6-1.5,3.1-2.8,4.2-.5.5-.7,1.1-.6,1.8,0-.1-.1-.3-.2-.4-.4.3-.7.5-1,.8,0,0,0,0-.1-.2.2-.1.4-.2.6-.3,0,0,0,0,0-.2-.2,0-.5,0-.7-.1.6,0,1.2,0,1.3-.9-2,.5-3.1,1.8-3.9,3.6-.3.7-.4,1.4-.5,2.1,0,.3.3.7.4,1,.1.2.2.5.2.8-.1-.2-.3-.4-.4-.6,0,0-.2,0-.2,0,.3,1.1.5,2.1.8,3.3-.3-.8-.6-1.4-.9-2-.6.4-1.2.9-1.8,1.3,0-.3,0-.7.6-.8.8-.2,1.2-.9,1-1.6-.5-1.7-.2-3.3.9-4.8-1,0-1.2.7-1.7,1.1.3-.7.7-1.3,1.6-1.4.2,0,.4-.1.5-.3.7-1.1,1.7-1.6,2.8-2.1.9-.4,1.6-.9,2.2-2-.6,0-1.1.2-1.6.3,0,0-.2.2-.2.3,0,1-.9,1-1.7,1.2.6-.4,1.4-.3,1.4-1.3-1.7.8-3.6,1.2-4.5,3,0,.1-.3.2-.5.3-1.1.3-2,.8-2.1,2.1,0,0-.2.2-.4.2.3-.6.5-1.2.9-1.9-.4,0-.8,0-1.2,0h0c.8-.3,1.6-.4,2.4-.7.3,0,.7-.3.9-.6.5-1.1,1.5-1.5,2.4-2,.3-.2.6-.3.9-.5-.7-.5-1.4-.5-2.1-.2.7-.5,1.2-.5,2-.3.3,0,.7,0,1.1,0,.6-.1,1.2-.5,1.8-.5,1.3,0,1.5-.8,1.9-1.9-.6.3-1.1.5-1.5.7-.2-.6.6-.7.9-.7.5,0,.7-.3.9-.7.2-.4.5-.9.8-1.4-1,.3-2,.5-2.9.8-.3.1-.7.6-.7,1,0,.7-.4.9-1.1,1,.3-.2.6-.4.9-.6,0,0-.1,0-.2,0-.8,0-1.5,0-2.3,0-.6,0-1.2.2-1.6.6-.4.4-1,.8-1.4,1.2-.3.3-.5.7-.8,1,0,0,0-.1-.1-.3-.9.7-2.1,1-2.4,2.2,0-.2,0-.4.1-.7-3,1.4-2.5,1.1-3.7.9.6-.2,1.6-.2,2.4-.6.8-.3,1.5-.9,2.3-1.5-.9-.7-1.7,0-2.5,0,.8-.4,1.7-.8,2.6-.4.1,0,.3,0,.4,0,1-.8,2-1.7,3.1-2.6-1.3-.8-2.4-1.5-3.9-1.3-1.1.1-1.4.4-1.8,1.5,0-.2,0-.4.1-.5.1-.2.2-.4.4-.8-1.1.1-2.1.2-3.2.3.5-.2.9-.5,1.5-.4.7,0,1.5,0,2.3-.3,1.6-.4,2.9,0,4.2.7.4.2.9.2,1.3.2.2,0,.5,0,.6,0,1.2.3,2.2,0,2.8-1.3-1-.5-2,.2-3.2.2.3-.1.5-.2.8-.3-.3-.3-.5-.5-.7-.8,0,0,0,0,0,0,.3.2.6.5,1,.7.5.2.8,0,1-.5,1.1.6,2.2.6,3.5.1,1.2-.4,2.3-.9,3.1-1.9-1-.1-1.9-.4-2.8.3-.5.4-1.2.4-1.8.6,0,0,0-.1,0-.2.6-.2,1.2-.5,1.8-.7,0,0,0-.2,0-.2-.5,0-.9.1-1.4,0-1.3-.1-2.7-.3-4-.5-.7,0-1.5-.3-1.9.6-.2.3-.5.6-.9.8,0-.2,0-.3,0-.5-.6,0-1.2,0-1.8-.1.8-.4,1.9.2,2.5-.7-1.5,0-3.1,0-4.5.9-.8.6-1.7.8-2.7.5-.4-.1-.9,0-1.3,0-.2,0-.4,0-.5,0-.5,0-1-.2-1.5-.2.2,0,.3,0,.4,0,1.2,0,2.4.2,3.6.2.7,0,1.4,0,1.9-.8.3-.5,1.2-.6,1.9-.7.8-.2,1.7-.3,2.5-.4-.8-1-1.6-.4-2.3,0,.4-.3.7-.5,1.2-1-1.2-.1-2.2-.2-3.3-.3h0c.4-.1.7,0,1,0,.4,0,.7,0,1.1,0,.5,0,1,0,1.4.3,1,.6,2.1.9,3.2,1.1,2.2.4,4.3.2,6.4,0,1.2,0,2.4.2,3.5.5,1.4.4,2.7.5,4-.2.1,0,.3-.2.4-.3-1.3.3-2.5,0-3.7-.7-.2-.1-.6,0-1.1-.1.5-.1.8-.2,1.2-.2-.4-.5-1.2-.9-1.9-.7-.3,0-.6.1-.8.2-.9.4-1.7.7-2.7,0,0,0-.2,0-.3-.1.3,0,.7.2,1,.2.2,0,.5,0,.8,0,.5-.2.9-.4,1.4-.8-.6-.1-1.2-.2-1.7-.3,0,0,0,0,0-.2.7,0,1.3.2,2,.3.2,0,.5,0,.7,0,1,0,1.8.4,2.4,1.1.3.3.7.5,1.1.5.7,0,1.5,0,2.1-.3.3,0,.6-.5.7-.9,0-.1,0-.2,0-.4v-.4c.1-.2.3-.4.4-.6h5.1c.2.3.3.5.6.7v.7c0,.5.2.9.8,1,.6,0,1.2.2,1.7.2.6,0,1.1,0,1.5-.6.6-.8,2.5-1.2,3.4-.8.2,0,.4.2.6.3.7.3,1.3.7,2.1.1.1,0,.3,0,.5,0-.9.9-1.9.7-3,.2-.7-.3-1.3-.5-2,.1-.2.2-.7.3-1,.4,0,0,0,.1,0,.2.4.2.9.5,1.3.7,0,0,0,0,0,0-1.1-.5-2.1,0-3.1.2-.5,0-1,0-1.4,0,0,0,0,.1,0,.2.6.2,1.2.5,1.9.6.7,0,1.4,0,2-.2,1.8-.7,3.7-.8,5.7-.5.4,0,.9,0,1.3-.1.6,0,1.2-.1,1.8,0-.4,0-.8.2-1.2.2,0,0,0,0,0,.1.5,0,1,0,1.6-.2.7,0,1.4-.3,2.1-.2,1,0,1.9-.2,2.6-.8.5-.4,1-.5,1.7-.4.3,0,.7,0,1,0h1.4c-1.6.5-3.4-.2-4.7,1.3.4,0,.8.1,1.2.2.7.2,1.4.4,2.1.6.3,0,.6,0,.8,0,0,0-.1.2-.3.3.7.5,1.4.8,2.2.6.6,0,1.2-.4,1.7.1-.6,0-1.2.2-1.8.1-.7,0-1.5,0-2.1-.5-1.4-1.1-3.1-1-4.8-1.1.6,1.1,1.7.3,2.4.9h-1.5c0,.3,0,.5,0,.6-.2-.2-.4-.5-.7-.7,0,0-.1,0-.2-.1-.5-1.1-1.5-.8-2.3-.6-1.7.5-3.4.5-5.1.3-.2,0-.4,0-.6,0,0,0,0,.1,0,.2.8.2,1.5.3,2.5.5-.9.1-1.6,0-2.4.2-.8-.9-1.2-1-2.4-.6,3,2.5,5.4,2.4,6.6,1.6.4.8.8.8,2.1-.2-.2.3-.5.5-.8.8.2.1.4.2.7.4-1.1,0-2.1-.8-3.1-.2.6,1.1,1.4,1.6,2.7,1.3,0,0,.2,0,.2,0,1.2.4,2.1-.3,3-.7.2,0,.4-.3.5-.5.5-.8,1.1-.9,1.9-.3-.7-.1-1.3-.3-1.6.4,1.8.2,3.7.4,5.5.6,0,0,0,.1,0,.2-.9,0-1.7-.1-2.7-.2.1.3.2.5.3.7-.4-.7-1-.9-1.7-.9-.7,0-1.4.1-2,.2v.3c.4.1.8.2,1.4.4-1,.1-2.1-.5-2.9.4.5.9.6.9,1.5.7.6-.1,1.2,0,1.8-.1.1.2.2.4.3.7-.8-.6-1.6-.5-2.7,0,.8.6,1.4,1.1,2,1.6,0,0,.2,0,.3,0,1.2-.5,2.1.2,3.2.5-1,0-1.9-.9-3-.2,1.5,1.1,2.9,2.3,5,2h-.1Z"/>
      <g>
        <path class="st1" d="M49.4,65.6c-4.9-12.1.9-19,11.2-22.5,3.1-1.1,5.8-1.1,7.7-2.5,3-2.2,7-7.2,9.3-7.9,3.4-1,2.2,1.9,2.2,1.9,0,0-4.2,6.4-4.8,7.1-.6.7-3.1,2.8-3.9,3,.8,0,2.7-1.3,4.4-2.8.5-.5.9-1.2,1.4-1.9,2.1-3.1,3.8-4.8,4-6.4.2-1.6-1.5-1.7-1.5-1.7,0,0,1.1-2.8,1-7.9,0-3.2,2.1-4.6,3-4,.4.2.3,2.7.3,3.5,0,3.7.9,9.7,0,12.2-1.2,3.2-3.8,10.7-7.8,13.9-11.2,9-19.6,2.7-26.7,16h0Z"/>
        <path class="st1" d="M49.3,65.6c4.9-12.1-.9-19-11.2-22.5-3.1-1.1-5.8-1.1-7.7-2.5-3-2.2-7-7.2-9.4-7.9-3.4-1-2.2,1.9-2.2,1.9,0,0,4.2,6.4,4.8,7.1.6.7,3.1,2.8,3.9,3-.8,0-2.7-1.3-4.4-2.8-.5-.5-.9-1.2-1.4-1.9-2.1-3.1-3.8-4.8-4-6.4-.2-1.6,1.5-1.7,1.5-1.7,0,0-1.1-2.8-1-7.9,0-3.2-2-4.6-3-4-.4.2-.3,2.7-.3,3.5,0,3.7-.9,9.7,0,12.2,1.2,3.2,3.8,10.7,7.8,13.9,11.2,9,19.6,2.7,26.7,16h0Z"/>
      </g>
    </g>
    <g>
      <g>
        <path class="st0" d="M63.2,30.6s.6-1.4,2.3-1.5c1.4,0,2.6,1,4.2.5,0,0-3.2,3.9-6.2,1.3,0,0,1.8-1,3.4-.6,0,0-1.8-.8-3.7.3h0Z"/>
        <path class="st0" d="M59.8,32.3s1.4-.5,2.7.6c1.1,1,1.1,2.6,2.6,3.3,0,0-5.1.5-5.3-3.5,0,0,2,.5,2.9,2,0,0-.7-1.8-2.8-2.4h0Z"/>
        <path class="st0" d="M61.3,26.4s.7,1.2,2.2,1.2c1.3,0,2.3-1.1,3.7-.8,0,0-3.2-3.3-5.7-.7,0,0,1.7.8,3.2.3,0,0-1.5.8-3.4,0h0Z"/>
        <path class="st0" d="M58.2,27.7s0,1,.9,1.5c.8.5,1.8.2,2.6.9,0,0-.8-3.2-3.2-2.5,0,0,.7,1.1,1.8,1.3,0,0-1.2,0-2.1-1.2h0Z"/>
        <path class="st0" d="M54.7,31.9s0,1,.9,1.5c.8.5,1.8.2,2.6.9,0,0-.8-3.2-3.2-2.5,0,0,.7,1.1,1.8,1.3,0,0-1.2,0-2.1-1.2h0Z"/>
        <path class="st0" d="M58.3,26.3s-.5-1.3.4-2.4c.8-1,2.3-1.1,2.9-2.5,0,0,.6,4.6-3,4.9,0,0,.4-1.8,1.7-2.6,0,0-1.6.7-2.1,2.6h0Z"/>
        <path class="st0" d="M54.5,28s-.7-.7-.4-1.8c.3-.9,1.3-1.4,1.3-2.5,0,0,1.6,2.9-.7,4.1,0,0-.2-1.3.5-2.3,0,0-.9.9-.7,2.3Z"/>
        <path class="st0" d="M50.5,26.5s-.2-1,.7-1.7c.7-.6,1.8-.5,2.5-1.3,0,0-.2,3.4-2.8,3.1,0,0,.6-1.2,1.6-1.6,0,0-1.2.3-1.9,1.6h0Z"/>
        <path class="st0" d="M62.9,23.4s-.2-1,.7-1.6c.8-.6,1.8-.4,2.5-1.2,0,0-.4,3.3-3,3,0,0,.6-1.2,1.7-1.6,0,0-1.2.2-1.9,1.5Z"/>
        <path class="st0" d="M39.8,32.1s-.8-.6-1.8-.2c-.9.4-1.2,1.4-2.3,1.5,0,0,3.1,1.4,4.1-1.1,0,0-1.3,0-2.2.7,0,0,.8-1,2.3-.9Z"/>
        <path class="st0" d="M50.7,12.6s-1.5-.5-1.7-2.1c-.2-1.4.8-2.7.1-4.2,0,0,4.2,2.9,1.9,6.1,0,0-1.2-1.7-.9-3.4,0,0-.6,1.8.7,3.7Z"/>
        <path class="st0" d="M52.6,16.4s-.9-1.2-.2-2.7c.6-1.3,2.2-1.8,2.5-3.4,0,0,1.9,4.8-1.9,6.1,0,0,0-2.1,1.2-3.3,0,0-1.5,1.2-1.5,3.4Z"/>
        <path class="st0" d="M50.5,18.1s.8-1.3,0-2.8c-.7-1.2-2.3-1.6-2.8-3.2,0,0-1.4,4.9,2.5,5.9,0,0-.2-2-1.4-3.2,0,0,1.6,1,1.8,3.2Z"/>
        <path class="st0" d="M45.2,17.9s-.7-1.4-2.3-1.4c-1.5,0-2.6,1.1-4.2.6,0,0,3.4,3.9,6.3,1.1,0,0-1.8-1-3.5-.5,0,0,1.7-.8,3.7.2h0Z"/>
        <path class="st0" d="M46.9,21.3s-.5-1.1-1.9-1.2c-1.2,0-2.1.9-3.4.5,0,0,2.8,3.2,5.2.9,0,0-1.5-.8-2.8-.4,0,0,1.4-.7,3,.2Z"/>
        <path class="st0" d="M51.6,22.4s-.1-1.2,1-2c1-.6,2.3-.3,3.2-1.3,0,0-.8,4.1-4,3.4,0,0,.9-1.5,2.2-1.8,0,0-1.6.2-2.5,1.7h0Z"/>
        <path class="st0" d="M38.9,26.3s-1.2-.1-1.8-1.4c-.4-1.1.1-2.3-.7-3.4,0,0,3.9,1.5,2.6,4.5,0,0-1.2-1.1-1.4-2.5,0,0-.1,1.6,1.2,2.8Z"/>
        <path class="st0" d="M42.4,27.8s-1.1-.1-1.5-1.2c-.4-.9.1-2-.6-2.9,0,0,3.3,1.3,2.2,3.9,0,0-1.1-1-1.2-2.1,0,0-.1,1.3,1,2.4h0Z"/>
        <path class="st0" d="M36.1,30.5s-.8-1-2.1-.7c-1.2.2-1.9,1.3-3.2,1.2,0,0,3.4,2.5,5.2-.2,0,0-1.6-.5-2.9.2,0,0,1.2-1,3-.5h0Z"/>
        <path class="st0" d="M43.6,15.4s-1.7.3-2.8-1.2c-1-1.3-.7-3.1-2.1-4.2,0,0,5.7.6,5,5,0,0-2-1-2.7-2.8,0,0,.4,2.1,2.6,3.3h0Z"/>
        <path class="st0" d="M35.2,26.4s-1.1.8-2.5.2c-1.2-.5-1.6-2-3.1-2.2,0,0,4.3-1.7,5.5,1.7,0,0-1.8,0-3-1,0,0,1.1,1.4,3.1,1.3h0Z"/>
        <path class="st0" d="M35.7,29.1s.3-.5,0-1.1c-.3-.5-.9-.6-1.1-1.3,0,0-.6,2,.9,2.4,0,0,0-.8-.5-1.3,0,0,.6.4.7,1.3h0Z"/>
        <path class="st0" d="M37.8,30.3s-.7-.2-.8-1.1c-.1-.7.4-1.4,0-2.1,0,0,2.1,1.4.9,3.1,0,0-.6-.8-.5-1.7,0,0-.3.9.3,1.8Z"/>
      </g>
      <path class="st0" d="M56.9,30.6c-1.5-.3-2.8.2-3.5.5,1.5-2.2,3.9-4,7.5-4.8,0,0-10.6.5-11.5,13.5-.2-1.1-.7-5.1-.6-7.4.2-3.4,1.5-6.5,2.2-9.8.7-3.3,1.1-6.6,0-9.9.6,3.6,0,6.5-.4,7.8-.4,1.5-1.1,3-1.7,4.5,0-2.7-.9-7.1-5.1-9.6,0,0,3.1,2,4,7,.4,2.2.2,4.5-.5,6.7-.2.8-.4,1.5-.5,2.3,0,.5-.1,1-.2,1.5-1.7-2.7-5.2-6.5-11.2-6.6,0,0,4.6.5,8.2,4.3,0,0-3.9,1.8-8.1-1.5,0,0,2.9,3.8,8.8,2.3,1.4,1.8,2.2,4,2.3,6.3h0c0,1.8.3,3.6.6,5.4h2.1c0,0,0,0,0,0h1.2s-.6-5.6,1.8-10.4c.3-.6.9-1.1,1.5-1.4,1.3-.5,2.8-.4,4.5,0,2.5.7,4.5-.4,4.5-.4-2.9.8-4.5-.1-6.2-.4h0Z"/>
    </g>
  </g>
  <g>
    <g>
      <path class="st0" d="M109.8,46.2v1.8h-1.2v2.1h-2v-2.1h-5.2v-1.3l4.2-7h3v6.5h1.2ZM106.6,41.6l-2.7,4.6h2.7s0-4.6,0-4.6Z"/>
      <path class="st0" d="M120.4,48.2v1.9h-7.9v-10.4h2v8.6h5.9,0Z"/>
      <path class="st0" d="M122.2,39.9c0-.6.5-1.1,1.1-1.1s1.1.5,1.1,1.1-.5,1.1-1.1,1.1-1.1-.5-1.1-1.1ZM122.4,50.1v-8h1.9v8h-1.9Z"/>
      <path class="st0" d="M129,41.8v.2h2.3v1.6h-2.3v6.4h-1.9v-8.9c0-1.5,1.1-2.4,2.6-2.4h2.3v1.7h-1.6c-1,0-1.4.4-1.4,1.3Z"/>
      <path class="st0" d="M140.2,47.3c0,2-1.3,3-3.6,3s-4-1.8-4-4.2,2-4.1,3.9-4.3c2.2-.2,3.5.9,3.5,2.4s-.2,1.6-1.5,2.1l-3.5,1.4c.4.5.9.8,1.5.8.9,0,1.6-.4,1.6-1.3h2ZM134.7,46.4l2.9-1.2c.3-.1.6-.3.6-.7,0-.6-.6-1.1-1.4-1.1s-2.1.7-2.1,2.6,0,.2,0,.3h0Z"/>
    </g>
    <g>
      <g>
        <path class="st0" d="M111.5,28.6v1.9h-2.5c-1.1,0-1.5.5-1.5,1.4v5.3h-2.1v-6c0-1.6,1.1-2.7,2.8-2.7h3.3Z"/>
        <path class="st0" d="M120.7,34.2c0,2.2-1.4,3.2-3.8,3.2s-4.3-1.9-4.3-4.6,2.2-4.4,4.2-4.6c2.4-.2,3.8,1,3.8,2.6s-.3,1.7-1.6,2.3l-3.7,1.5c.4.6.9.9,1.6.9,1,0,1.7-.4,1.7-1.4,0,0,2.2,0,2.2,0ZM114.7,33.2l3.1-1.3c.3-.1.6-.3.6-.7,0-.7-.7-1.1-1.5-1.1s-2.2.8-2.2,2.8,0,.2,0,.4Z"/>
        <path class="st0" d="M130.4,34.2c0,2.2-1.4,3.2-3.8,3.2s-4.3-1.9-4.3-4.6,2.2-4.4,4.2-4.6c2.4-.2,3.7,1,3.7,2.6s-.3,1.7-1.6,2.3l-3.7,1.5c.4.6.9.9,1.6.9,1,0,1.7-.4,1.7-1.4h2.2ZM124.4,33.2l3.1-1.3c.3-.1.6-.3.6-.7,0-.7-.7-1.1-1.5-1.1s-2.2.8-2.2,2.8,0,.2,0,.4Z"/>
        <path class="st0" d="M141,31.9v5.3h-2.1v-5c0-1.4-1-2.1-2.1-2.1s-2.4,1-2.4,2.7v4.4h-2.1v-8.7h2.1v1.8c.7-1.3,1.9-2,3.1-2,1.8,0,3.4,1.2,3.4,3.6h0Z"/>
      </g>
      <g>
        <path class="st0" d="M104.5,33.5s-.7-2.5-3.4-2-4.1,3.4-8.2.2c0,0,1.6.4,3.3-1.6,2.5-2.8,6.3.2,6.3.2,0,0-2.2-1.1-4.1.5-1.8,1.5-3.5,1.2-3.5,1.2,0,0,1.6.6,3.9-1,2.2-1.5,5.4-.1,5.6,2.4h0Z"/>
        <path class="st0" d="M101.1,31.6c-.8.2-1.4.5-2.1.8h2v.9c-.4,1.5-2.3,2.4-4.5,2.4s-5.5-1.5-5.5-5.9,1.8-5.7,5.2-5.7,4.2,1.1,4.2,3h4c0-4-3.8-6.2-8.1-6.2s-8.9,4.1-8.9,8.9,4.6,8.9,9.1,8.9,7.2-2.5,7.9-5.1h0s-.7-2.5-3.4-2h0Z"/>
      </g>
    </g>
  </g>
</svg>